<?xml version="1.0" standalone="no"?>
<!DOCTYPE svg PUBLIC "-//W3C//DTD SVG 1.1//EN" "http://www.w3.org/Graphics/SVG/1.1/DTD/svg11.dtd" >
<svg xmlns="http://www.w3.org/2000/svg">
<metadata></metadata>
<defs>
<font id="palotesbregular" horiz-adv-x="966" >
<font-face units-per-em="2048" ascent="1370" descent="-678" />
<missing-glyph horiz-adv-x="614" />
<glyph horiz-adv-x="2048" />
<glyph horiz-adv-x="2048" />
<glyph unicode="&#xd;" horiz-adv-x="614" />
<glyph unicode=" "  horiz-adv-x="614" />
<glyph unicode="&#x09;" horiz-adv-x="614" />
<glyph unicode="&#xa0;" horiz-adv-x="614" />
<glyph unicode="!" horiz-adv-x="460" d="M195 84q0 37 25.5 63.5t62.5 26.5t62.5 -26.5t25.5 -63.5q0 -35 -26 -61.5t-62 -26.5q-37 0 -62.5 26.5t-25.5 61.5zM229 244v1081h109v-1081h-109z" />
<glyph unicode="&#x22;" horiz-adv-x="440" d="M78 989v334h108v-334h-108zM272 989v334h111v-334h-111z" />
<glyph unicode="#" d="M100 197l138 290h-111v115h162l57 121h-219v113h274l152 329l96 -43l-133 -286h94l152 329l96 -43l-129 -286h107v-113h-158l-55 -121h213v-115h-267l-159 -342l-99 52l142 290h-97l-159 -342zM408 602h96l55 121h-92z" />
<glyph unicode="$" d="M86 340v18h109v-18q0 -51 18 -91t51 -69.5t75 -48t87 -25.5v519l-104 34q-106 37 -167 126t-61 198q0 66 24.5 125t69.5 105.5t105.5 76t132.5 37.5v164h102v-164q61 -6 121 -30.5t107 -63.5t77.5 -91t34.5 -118q-23 -2 -36 -3t-24 -3t-23.5 -3t-32.5 -3q-10 90 -75 142 t-149 65v-514l107 -37q106 -37 169.5 -128t63.5 -200q0 -68 -25.5 -126t-71.5 -104.5t-108.5 -77t-134.5 -38.5v-168h-102v168q-72 8 -134.5 38.5t-108.5 77t-71.5 104.5t-25.5 126zM205 983q0 -98 55 -150.5t139 -82.5l27 -9v476q-45 -6 -85 -26t-70.5 -49.5t-48 -69.5 t-17.5 -89zM528 106q92 14 161 74t69 160q0 49 -16.5 88t-45 68.5t-66.5 50t-81 35.5l-21 6v-482z" />
<glyph unicode="%" horiz-adv-x="1024" d="M76 969q0 43 16.5 82t46 67.5t67.5 45t81 16.5q45 0 84 -16.5t67.5 -45t45 -67.5t16.5 -82t-16.5 -82t-45 -67.5t-67.5 -45t-84 -16.5q-43 0 -81 16.5t-67.5 45t-46 67.5t-16.5 82zM178 20l590 1323l100 -47l-589 -1321zM188 969q0 -47 30 -74t69 -27q47 0 75.5 32 t28.5 69q0 47 -31.5 74.5t-72.5 27.5t-70 -30.5t-29 -71.5zM545 356q0 43 16.5 82t45 68t67.5 45t82 16q45 0 84 -16t67.5 -45t45 -68t16.5 -82t-16.5 -83t-45 -68.5t-67.5 -46t-84 -17.5q-43 0 -82 17.5t-67.5 46t-45 68.5t-16.5 83zM655 356q0 -49 32 -76.5t69 -27.5 q49 0 76.5 31.5t27.5 72.5q0 47 -31.5 74t-72.5 27q-43 0 -72 -31t-29 -70z" />
<glyph unicode="&#x26;" horiz-adv-x="1021" d="M43 342q0 78 25.5 137.5t67.5 106.5t96.5 87t111.5 79q-57 74 -105.5 150.5t-48.5 174.5q0 55 25 101.5t63.5 78t88 49t100.5 17.5q53 0 102 -15.5t87 -46t61.5 -76.5t23.5 -108q0 -68 -19.5 -118t-52 -90t-76.5 -74.5t-91 -71.5l243 -320q10 35 18.5 81t8.5 104h113 q-4 -86 -19.5 -158t-40.5 -133l185 -240l-90 -71l-148 194q-59 -92 -151.5 -140t-200.5 -48q-78 0 -146.5 22.5t-120 66.5t-81 109.5t-29.5 151.5zM152 342q0 -57 22.5 -102t60 -76t86 -46.5t99.5 -15.5q66 0 116 24t84.5 53.5t54 58t21.5 38.5l-290 388q-45 -31 -90.5 -62 t-82 -68.5t-59 -84t-22.5 -107.5zM301 1077q0 -39 13.5 -73.5t34 -67.5t45 -63.5t44.5 -61.5q35 25 70 51.5t62.5 59t44 70.5t16.5 85q0 61 -50.5 98t-113.5 37t-114.5 -36.5t-51.5 -98.5z" />
<glyph unicode="'" horiz-adv-x="286" d="M88 989v334h109v-334h-109z" />
<glyph unicode="(" horiz-adv-x="512" d="M92 569q0 424 160 875l104 -35q-41 -115 -66.5 -209t-41.5 -182q-18 -92 -31.5 -202.5t-13.5 -246.5q0 -86 5 -180t21 -192q18 -104 49 -220t89 -268l-105 -37q-47 125 -79.5 236.5t-52 218t-29 214.5t-9.5 228z" />
<glyph unicode=")" horiz-adv-x="512" d="M121 -291q57 152 88 267.5t47 220.5q16 98 22.5 192t6.5 180q0 135 -12.5 246t-30.5 203q-18 88 -44 182t-67 209l105 35q161 -449 161 -875q0 -121 -9 -228.5t-30.5 -214t-53.5 -218t-79 -236.5z" />
<glyph unicode="*" d="M145 395l267 269l-265 264l78 78l264 -265l265 265l80 -78l-265 -264l265 -267l-76 -78l-266 267l-267 -269z" />
<glyph unicode="+" d="M145 606v111h275v274h121v-274h266v-111h-266v-276h-121v276h-275z" />
<glyph unicode="," horiz-adv-x="403" d="M92 -129q33 35 56.5 68.5t27.5 62.5q-27 10 -42 32.5t-15 49.5q0 37 26.5 63.5t63.5 26.5q35 0 60.5 -25.5t29.5 -64.5q8 -80 -29 -152.5t-96 -134.5z" />
<glyph unicode="-" horiz-adv-x="786" d="M147 274v111h478v-111h-478z" />
<glyph unicode="." horiz-adv-x="423" d="M123 80q0 37 27.5 63.5t62.5 26.5q37 0 63.5 -26.5t26.5 -63.5q0 -35 -26.5 -60.5t-63.5 -25.5q-35 0 -62.5 25.5t-27.5 60.5z" />
<glyph unicode="/" d="M90 27l686 1319l98 -48l-686 -1321z" />
<glyph unicode="0" d="M76 664q0 127 29.5 246.5t83 214t129 150.5t169.5 56t170 -56t129.5 -150.5t82 -214t28.5 -246.5t-28.5 -248t-82 -214t-129 -150.5t-170.5 -57.5q-94 0 -169.5 57.5t-129 150.5t-83 214t-29.5 248zM186 664q0 -127 27 -230.5t70 -176.5t97 -113t107 -40t106.5 40 t96.5 113t69.5 176.5t26.5 230.5t-26.5 229t-69.5 175t-96 113t-107 40q-53 0 -107 -40t-97 -113t-70 -175t-27 -229z" />
<glyph unicode="1" d="M207 860l360 463h113v-1323h-111v1145l-276 -352z" />
<glyph unicode="2" d="M123 0v129l571 668q59 72 60 168q0 53 -20.5 100t-55.5 82t-82 55.5t-100 20.5t-100.5 -20.5t-82 -55.5t-55 -82t-20.5 -100h-111q0 76 28.5 143.5t79 117.5t118 78.5t143.5 28.5q78 0 144.5 -28.5t116.5 -78.5t78.5 -118t28.5 -143q0 -68 -22.5 -129.5t-63.5 -108.5 l-522 -614h608v-113h-741z" />
<glyph unicode="3" d="M96 319l111 11q6 -49 29.5 -90t60.5 -72t85 -48.5t101 -17.5q57 0 108.5 20.5t89.5 56.5t60.5 83t22.5 100t-22.5 100.5t-60.5 83.5t-89 56.5t-111 20.5h-26v104h28q53 0 99.5 20.5t81 54.5t55 78t20.5 95t-20.5 96t-55 79t-80.5 53.5t-100 19.5q-96 0 -166.5 -59.5 t-87.5 -147.5l-104 20q10 61 43 115.5t80 93.5t107.5 61.5t127.5 22.5q76 0 142.5 -27.5t116 -75.5t78 -112.5t28.5 -138.5q0 -94 -45 -172t-123 -125q86 -47 138 -130.5t52 -185.5q0 -76 -30.5 -143t-84 -117.5t-123 -79t-149.5 -28.5q-74 0 -140.5 24.5t-118.5 68.5 t-86 103.5t-42 128.5z" />
<glyph unicode="4" d="M90 303v129l553 909l96 -57l-528 -868h418v299h110v-297h117v-111h-117v-307h-110v303h-539z" />
<glyph unicode="5" d="M141 618l115 707h563v-111h-473l-65 -411q47 39 103 60.5t120 21.5q84 0 153.5 -36t120.5 -97.5t80 -142.5t29 -169t-29 -169t-80 -142t-120.5 -98t-153.5 -37q-63 0 -120.5 23.5t-105 63.5t-82 95t-51.5 117l107 22q31 -96 100.5 -153.5t151.5 -57.5q53 0 102 25t87 70 t60.5 105.5t22.5 133.5q0 74 -22.5 135.5t-60.5 106.5t-87 69.5t-102 24.5q-76 0 -141.5 -49t-100.5 -135z" />
<glyph unicode="6" d="M80 676q0 92 21.5 206.5t72.5 215t133 168t201 67.5q72 0 125 -21.5t115 -76.5l-72 -84q-49 45 -84 58.5t-84 13.5q-92 0 -152.5 -58.5t-97.5 -143.5t-52.5 -178t-15.5 -161q51 92 133.5 147.5t186.5 55.5q84 0 153.5 -36t121 -97.5t80 -142.5t28.5 -169t-27.5 -169 t-79 -142t-122 -98t-154.5 -37q-80 0 -158 40t-138 123t-97 212t-37 307zM240 440q0 -74 22.5 -135t59 -105t86 -70t102.5 -26t102.5 26t87 70t60 105t22.5 135t-22.5 134.5t-60 105.5t-87 69.5t-102.5 24.5t-102.5 -24.5t-86 -69.5t-59 -105.5t-22.5 -134.5z" />
<glyph unicode="7" d="M104 1214v111h781v-108l-260 -500h145v-111h-203l-321 -620l-99 49l295 571h-143v111h201l258 497h-654z" />
<glyph unicode="8" d="M94 362q0 102 52.5 186.5t140.5 129.5q-76 43 -121 123t-45 174q0 74 28.5 138.5t77.5 113.5t115 76.5t141 27.5q76 0 142.5 -27.5t116 -76.5t78 -113.5t28.5 -138.5q0 -94 -45 -174t-123 -123q86 -45 139 -129.5t53 -186.5q0 -76 -30.5 -143t-83.5 -118.5t-124 -80 t-151 -28.5t-150.5 28.5t-123.5 80t-84 119t-31 142.5zM203 362q0 -53 21.5 -100t60.5 -83t90 -56.5t108 -20.5t108.5 20.5t89.5 56.5t60.5 83t22.5 100t-22.5 100.5t-60.5 83.5t-89 56.5t-109 20.5q-57 0 -108 -20.5t-90 -56.5t-60.5 -83t-21.5 -101zM229 975 q0 -51 19.5 -96t54.5 -79t81 -53.5t99 -19.5t99.5 19.5t81 53.5t54 79t19.5 96t-19.5 96t-54 79t-80.5 53.5t-100 19.5q-53 0 -99 -19.5t-81 -53.5t-54.5 -79t-19.5 -96z" />
<glyph unicode="9" d="M125 971q0 76 28.5 141.5t78 114.5t116 77.5t141.5 28.5q76 0 142.5 -28.5t116 -77.5t78 -114.5t28.5 -141.5q0 -92 -41 -170l-422 -815l-96 51l301 586q-53 -16 -107 -17q-76 0 -142 29t-115.5 78t-78 115.5t-28.5 142.5zM236 971q0 -53 20 -99.5t54 -81t81 -54 t98 -19.5q53 0 99.5 19.5t80 54t54 81t20.5 99.5t-20.5 98t-54 80t-79.5 54.5t-100 19.5q-51 0 -98 -19.5t-81 -54.5t-54 -80t-20 -98z" />
<glyph unicode=":" horiz-adv-x="440" d="M133 88q0 35 26.5 60.5t63.5 25.5q35 0 60.5 -25.5t25.5 -60.5q0 -37 -25.5 -63.5t-60.5 -26.5q-37 0 -63.5 26.5t-26.5 63.5zM133 561q0 37 26.5 63.5t63.5 26.5q35 0 60.5 -26.5t25.5 -63.5q0 -35 -25.5 -60.5t-60.5 -25.5q-37 0 -63.5 25.5t-26.5 60.5z" />
<glyph unicode=";" horiz-adv-x="440" d="M106 -129q33 35 56.5 70.5t27.5 64.5q-27 10 -42 31.5t-15 50.5q0 35 26.5 60.5t63.5 25.5q35 0 61.5 -26.5t26.5 -63.5q0 -102 -31.5 -163.5t-91.5 -123.5zM133 561q0 37 26.5 63.5t63.5 26.5q35 0 60.5 -26.5t25.5 -63.5q0 -35 -25.5 -60.5t-60.5 -25.5 q-37 0 -63.5 25.5t-26.5 60.5z" />
<glyph unicode="&#x3c;" d="M133 598v123l666 276l43 -102l-568 -233l560 -236l-46 -100z" />
<glyph unicode="=" d="M160 483v113h659v-113h-659zM160 727v109h659v-109h-659z" />
<glyph unicode="&#x3e;" d="M129 897l43 102l666 -276v-123l-660 -272l-41 100l555 234z" />
<glyph unicode="?" horiz-adv-x="884" d="M98 961q0 76 29 143t79 117.5t116.5 79t142.5 28.5t142.5 -28.5t116.5 -79t78.5 -117.5t28.5 -143q0 -59 -14 -109.5t-37 -97.5q-35 -70 -76.5 -128.5t-80.5 -116.5t-67 -125t-34 -153h-110q4 78 22.5 139.5t48 117t67.5 107.5t79 114q39 59 66.5 119.5t27.5 132.5 q0 53 -20.5 100t-55.5 82t-82 55.5t-100 20.5t-100.5 -20.5t-82 -55.5t-55 -82t-20.5 -100q0 -76 43 -137.5t121 -100.5l-54 -94q-104 49 -161.5 136t-57.5 196zM387 78q0 37 25.5 63.5t60.5 26.5q37 0 63.5 -26.5t26.5 -63.5q0 -35 -26.5 -60.5t-63.5 -25.5 q-35 0 -60.5 25.5t-25.5 60.5z" />
<glyph unicode="@" horiz-adv-x="1355" d="M31 664q0 137 53 256.5t146.5 209t217 141.5t265.5 52q129 0 244.5 -42t205.5 -120q72 -61 114 -159.5t42 -215.5q0 -92 -27.5 -174t-77 -143t-116 -98t-144.5 -37q-55 0 -96 29.5t-57 82.5q-51 -59 -115.5 -86.5t-130.5 -27.5q-70 0 -126 25.5t-95 68.5t-59.5 98.5 t-20.5 114.5q0 76 28.5 144.5t78 121.5t117 85t145.5 32q59 0 101 -18.5t71 -40.5v57h108v-531q0 -25 16.5 -38t34.5 -13q45 0 90.5 24.5t82 70t60 110t23.5 143.5q0 100 -34.5 175t-85.5 118q-76 66 -171.5 102t-205.5 36q-119 0 -222.5 -43.5t-181.5 -119t-123 -176 t-45 -214.5q0 -115 45 -215.5t123 -176t181.5 -118.5t222.5 -43q145 0 268 64.5t211 182.5l90 -57q-104 -141 -249.5 -219t-319.5 -78q-141 0 -265 52.5t-217.5 141.5t-146.5 208.5t-53 257.5zM362 639q0 -37 12.5 -73t35 -64.5t54.5 -47t71 -18.5q70 0 118.5 28t80.5 69.5 t47.5 88t15.5 83.5t-11.5 74.5t-33 69.5t-54 51.5t-75.5 19.5q-57 0 -105.5 -26t-82.5 -66t-53.5 -90t-19.5 -99z" />
<glyph unicode="A" horiz-adv-x="1163" d="M25 20l483 1303h125l483 -1303l-102 -38l-234 624h-420l-231 -624zM401 717h338l-168 457z" />
<glyph unicode="B" horiz-adv-x="1030" d="M109 0v1323l423 -2q74 0 139.5 -27.5t115 -77t77 -114t27.5 -137.5q0 -90 -39 -165t-104 -122q88 -47 141 -131.5t53 -188.5q0 -74 -27.5 -139t-77 -114.5t-115 -77t-138.5 -27.5h-475zM217 717h336q49 0 90 20.5t71.5 54t48 79t17.5 94.5q0 51 -19.5 95t-53 77.5 t-78.5 53t-97 19.5h-315v-493zM219 111h365q51 0 96 19.5t79 53t53 78.5t19 96t-19 96.5t-53 79t-79 53t-96 19.5h-25h-340v-495z" />
<glyph unicode="C" horiz-adv-x="1085" d="M74 670q0 145 41 267t112.5 210t168 138t204.5 50q123 0 226.5 -62.5t174.5 -170.5l-92 -58q-59 86 -141 132.5t-168 46.5q-78 0 -151.5 -38t-132 -108.5t-94.5 -174t-36 -232.5q0 -131 36 -236.5t94.5 -179.5t133 -114t150.5 -40q86 0 168 46.5t141 134.5l92 -60 q-72 -109 -175 -170t-226 -61q-109 0 -205 52t-167.5 143t-112.5 216t-41 269z" />
<glyph unicode="D" horiz-adv-x="1126" d="M109 0v1325h395q111 0 208 -48t170.5 -135t115.5 -207t42 -265q0 -143 -42 -266t-114.5 -213.5t-171 -140.5t-208.5 -50h-395zM217 106l287 -2q109 0 187.5 54.5t132 137.5t79 184.5t25.5 193.5t-27 188t-80 176t-132 130.5t-185 50.5l-287 2v-1115z" />
<glyph unicode="E" horiz-adv-x="931" d="M111 2v1321h712v-111h-600v-495h539v-111h-539v-493h600v-111h-712z" />
<glyph unicode="F" horiz-adv-x="856" d="M113 0v1323h714v-111h-602v-497h539v-109h-539v-606h-112z" />
<glyph unicode="G" horiz-adv-x="1228" d="M76 670q0 143 41 264t110.5 209t164.5 137t202 49q123 0 224.5 -61.5t172.5 -169.5l-90 -58q-59 86 -140 132.5t-167 46.5q-76 0 -149.5 -37t-131 -107.5t-92.5 -173t-35 -231.5q0 -131 36 -235.5t93.5 -177.5t130 -112t148.5 -39q72 0 141.5 35t126 99.5t94 156.5 t45.5 209h-407v111h520v-47q0 -141 -40 -265t-110.5 -214.5t-166 -142.5t-203.5 -52q-106 0 -201.5 51t-165 142.5t-110.5 214t-41 266.5z" />
<glyph unicode="H" horiz-adv-x="1083" d="M113 0v1323h110v-608h635v608h111v-1323h-111v604h-635v-604h-110z" />
<glyph unicode="I" horiz-adv-x="792" d="M72 0v111h258v1101h-258v111h624v-111h-256v-1101h254v-111h-622z" />
<glyph unicode="J" horiz-adv-x="1028" d="M51 434h109q0 -68 26.5 -128t71.5 -105t105.5 -72t128.5 -27q70 0 126 27t96 73t61.5 105.5t21.5 126.5v887h108v-887q0 -92 -30.5 -172t-86 -140.5t-131 -94t-165.5 -33.5t-170 34.5t-140.5 95t-95.5 140.5t-35 170z" />
<glyph unicode="K" horiz-adv-x="942" d="M123 0v1323h108v-524l525 555l78 -76l-582 -619l582 -618l-78 -76l-525 555v-520h-108z" />
<glyph unicode="L" horiz-adv-x="882" d="M109 0v1323h112v-1210h615v-113h-727z" />
<glyph unicode="M" horiz-adv-x="1376" d="M109 0v1323h116l457 -608l459 608h116v-1323h-110v1147l-410 -541h-108l-408 539v-1145h-112z" />
<glyph unicode="N" horiz-adv-x="1181" d="M123 0v1323h115l714 -1122v1122h113v-1323h-117l-717 1128v-1128h-108z" />
<glyph unicode="O" horiz-adv-x="1228" d="M76 670q0 143 41 264t110.5 209t164.5 137t202 49q109 0 203 -49t164.5 -137t111.5 -209t41 -264q0 -141 -40 -265t-110.5 -214.5t-166 -142.5t-203.5 -52q-106 0 -201.5 51t-165 142.5t-110.5 214t-41 266.5zM186 670q0 -131 36 -235.5t93.5 -177.5t130 -112t148.5 -39 q78 0 150.5 39t131 113t93.5 178.5t35 233.5t-35 231.5t-93.5 173t-131 107.5t-150.5 37q-76 0 -149.5 -37t-131 -107.5t-92.5 -173t-35 -231.5z" />
<glyph unicode="P" horiz-adv-x="983" d="M121 0l2 1319h459q74 0 139 -27.5t114.5 -76t78 -112.5t28.5 -138t-28.5 -139.5t-77 -114.5t-114 -77t-138.5 -28h-353v-606h-110zM231 717h353q51 0 96 19.5t79 53t53 79t19 96.5t-19 95t-53 76.5t-80 52t-97 19.5h-351v-491z" />
<glyph unicode="Q" horiz-adv-x="1239" d="M76 670q0 143 41 264t110.5 209t164.5 137t202 49q109 0 203 -49t164.5 -137t111.5 -209t41 -264q0 -135 -36 -251t-97 -206l131 -164l-86 -74l-119 152q-66 -63 -144.5 -97t-168.5 -34q-106 0 -201.5 51t-165 142.5t-110.5 214t-41 266.5zM186 670q0 -131 36 -235.5 t93.5 -177.5t130 -112t148.5 -39q66 0 127 28t115 81l-123 152l84 71l110 -135q45 72 71 164t26 203q0 129 -35 231.5t-93.5 173t-131 107.5t-150.5 37q-76 0 -149.5 -37t-131 -107.5t-92.5 -173t-35 -231.5z" />
<glyph unicode="R" horiz-adv-x="1038" d="M121 0l2 1319h459q74 0 139 -27.5t114.5 -76t78 -113t28.5 -137.5q0 -68 -23.5 -128.5t-64.5 -107.5t-96.5 -77.5t-120.5 -41.5l311 -583l-98 -52l-332 631h-287v-606h-110zM231 717h353q51 0 96 19.5t79 53t53 79t19 96.5t-19 95t-53 76.5t-80 52t-97 19.5h-351v-491z " />
<glyph unicode="S" horiz-adv-x="983" d="M100 340v18h109v-18q0 -57 24.5 -101t64.5 -75t90 -46.5t104 -15.5q53 0 104 15.5t91 46.5t63.5 75t23.5 101q0 49 -17.5 88t-46 68.5t-66.5 50t-81 35.5l-227 77q-106 37 -166.5 126t-60.5 198q0 72 29.5 135.5t80.5 110.5t121 74.5t152 27.5q66 0 133 -21.5 t123.5 -61.5t93.5 -96t41 -128q-23 -2 -36 -3t-24.5 -3t-24 -3t-32.5 -3q-6 51 -30.5 90t-63.5 65.5t-85 40t-95 13.5q-51 0 -100.5 -16.5t-88.5 -47.5t-61.5 -75t-22.5 -99q0 -98 55.5 -150.5t139.5 -82.5l235 -82q106 -37 170 -128t64 -200q0 -72 -31 -135.5t-83 -110.5 t-123 -74.5t-152 -27.5q-82 0 -154 27.5t-125 74.5t-84 110.5t-31 135.5z" />
<glyph unicode="T" horiz-adv-x="1105" d="M41 1210v113h1020v-113h-451v-1210h-112v1210h-457z" />
<glyph unicode="U" horiz-adv-x="1132" d="M109 440v883h106v-883q0 -70 27.5 -131t76 -107t112 -73t134.5 -27q74 0 137.5 27t110.5 73t73.5 107.5t26.5 130.5v883h111v-883q0 -94 -36 -177t-98.5 -142.5t-146.5 -94t-178 -34.5t-177 34.5t-145.5 94t-98 142.5t-35.5 177z" />
<glyph unicode="V" horiz-adv-x="1210" d="M53 1300l105 39l444 -1194l442 1194l105 -39l-485 -1300h-125z" />
<glyph unicode="W" horiz-adv-x="1689" d="M70 1309l104 28l313 -1130l312 1116h114l316 -1116l309 1126l109 -20l-361 -1313h-117l-311 1133l-311 -1133h-117z" />
<glyph unicode="X" horiz-adv-x="1085" d="M70 1276l90 59l368 -575l367 581l92 -61l-393 -621l389 -618l-90 -57l-365 575l-362 -575l-94 57l391 616z" />
<glyph unicode="Y" horiz-adv-x="1060" d="M53 1284l94 59l369 -628l369 626l94 -55l-410 -684v-602h-110v600z" />
<glyph unicode="Z" horiz-adv-x="1007" d="M74 0v119l329 487h-98v111h172l330 489h-733v117h864v-123l-326 -483h99v-111h-172l-334 -493h731v-113h-862z" />
<glyph unicode="[" horiz-adv-x="432" d="M68 -344v1798h292v-108h-184v-1579h184v-111h-292z" />
<glyph unicode="\" horiz-adv-x="1028" d="M160 1307l102 45l610 -1329l-98 -48z" />
<glyph unicode="]" horiz-adv-x="432" d="M68 -233h182v1579h-182v108h292v-1798h-292v111z" />
<glyph unicode="^" horiz-adv-x="856" d="M98 809l336 256l336 -256l-68 -84l-268 201l-270 -203z" />
<glyph unicode="_" horiz-adv-x="950" d="M0 -111h948v-112h-948v112z" />
<glyph unicode="`" horiz-adv-x="710" d="M158 956l59 93l352 -211l-55 -93z" />
<glyph unicode="a" horiz-adv-x="927" d="M-6 279q0 41 3 70.5t10 56t21.5 53t39.5 61.5q53 74 123.5 110t138.5 36q143 0 221 -78v74h111v-496q0 -31 17 -47.5t40 -16.5q20 0 44.5 15.5t47.5 54.5l117 199l96 -54l-123 -208q-31 -53 -78 -84t-100 -31q-66 0 -102.5 25.5t-59.5 91.5q-29 -27 -55.5 -49.5t-55 -37 t-64.5 -22.5t-83 -8q-66 0 -122 22.5t-98 60.5t-65.5 90t-23.5 112zM102 297q0 -76 46.5 -131t123.5 -66q14 -2 27 -2q39 0 75 14q50 18 89 51.5t62.5 81.5t25.5 103v9q1 36 -13 70q-16 38 -43.5 66.5t-63.5 46t-73 17.5q-51 0 -98 -19.5t-82 -54t-55.5 -83t-20.5 -103.5z " />
<glyph unicode="b" horiz-adv-x="1026" d="M-4 369l174 297v438q0 39 11.5 79t34 72.5t54 53t74.5 20.5t75 -21.5t52.5 -53t29.5 -68.5t9 -68q0 -33 -12.5 -73.5t-30.5 -81.5t-38.5 -79t-37.5 -65l-110 -184v-330q0 -37 17 -72.5t45 -65.5t62.5 -47.5t71.5 -17.5q35 0 68 10.5t60.5 30t47 46t25.5 59.5 q-98 45 -163.5 125t-65.5 178q0 55 32.5 86t79.5 31h9q47 0 96 -37q109 -82 131 -264q2 -4 2 -16.5v-24.5q16 -4 32.5 -6.5t34.5 -2.5q76 0 114 21.5t46 34.5l94 -58q-29 -47 -95.5 -77.5t-158.5 -30.5q-20 0 -40.5 2t-41.5 6q-14 -47 -42.5 -88t-66.5 -71.5t-82 -48 t-91 -17.5q-68 0 -126.5 21.5t-102.5 62.5t-71.5 98t-31.5 127q-1 23 -1 48v26q1 39 1 73l-76 -133zM283 852q14 25 33.5 59.5t38 71.5t30.5 72.5t12 62.5q0 53 -20.5 77t-32.5 24q-14 0 -37.5 -26t-23.5 -89v-252zM559 551q0 -47 34 -96t89 -84q-4 49 -22.5 94t-59.5 76 q-2 2 -9 7t-14.5 8t-12.5 3t-5 -8z" />
<glyph unicode="c" horiz-adv-x="698" d="M-6 307q0 78 24.5 144.5t67.5 114.5t100.5 75t122.5 27q94 0 150.5 -47.5t72.5 -120.5l-106 -21q-14 41 -33.5 60.5t-73.5 19.5q-45 0 -83.5 -19.5t-68.5 -52t-47.5 -75.5t-17.5 -90q0 -94 53.5 -156t151.5 -66h9q87 0 162 37q79 39 140 115q16 20 25.5 32.5t17 23.5 t16.5 25.5t23 39.5l95 -58q-18 -31 -30.5 -49t-22 -30.5t-17.5 -22.5t-18 -25q-29 -39 -53.5 -62.5t-61.5 -49.5q-115 -82 -268 -82q-72 0 -132.5 24.5t-104.5 66.5t-68.5 99.5t-24.5 122.5z" />
<glyph unicode="d" horiz-adv-x="927" d="M-6 279q0 41 3 70.5t10 56t21.5 53t39.5 61.5q53 74 123.5 110t138.5 36q143 0 221 -78v735h111v-1157q4 -31 19 -48.5t36.5 -18.5t46 16.5t47.5 56.5l117 199l96 -54l-123 -208q-31 -53 -78 -84t-100 -31q-70 0 -104.5 25.5t-57.5 91.5q-29 -27 -55.5 -49.5t-55 -37 t-64.5 -22.5t-83 -8q-66 0 -122 22.5t-98 60.5t-65.5 90t-23.5 112zM103 322q-1 -12 -1 -24q0 -44 16 -81q20 -47 59.5 -79t94.5 -38q14 -2 27 -2q39 0 75 14q50 18 89 51.5t62.5 81.5t25.5 103v9q1 36 -13 70q-16 38 -43.5 66.5t-63.5 46t-73 17.5q-63 0 -124.5 -34 t-92.5 -87q-33 -56 -38 -114z" />
<glyph unicode="e" horiz-adv-x="755" d="M-6 307q0 78 24.5 144.5t67.5 114.5t100.5 76t122.5 28q35 0 70 -6.5t62.5 -22.5t46 -44t18.5 -69q0 -70 -44 -112.5t-106.5 -66t-132 -31t-121.5 -7.5v-12q0 -37 15.5 -73t43 -63.5t67.5 -44t91 -16.5q236 0 422 250q6 8 7.5 8t0.5 0t-1 2.5t6 10.5l96 -56 q-4 -10 -7 -13l-5 -5t0 -2q-88 -147 -216 -224t-298 -81h-11q-65 0 -121 22q-60 24 -104.5 67.5t-69 102t-24.5 123.5zM125 422q31 2 77 6t89 15.5t73.5 32.5t30.5 54q0 16 -17.5 23.5t-35.5 7.5q-66 0 -123 -27.5t-94 -111.5z" />
<glyph unicode="f" horiz-adv-x="524" d="M-45 -459q0 76 25.5 143.5t60.5 125t75 105.5t66 85q0 117 -1 232v78q0 77 1 155l-88 -154q-16 12 -42.5 26.5t-53.5 31.5l184 317v422q0 37 11.5 76t33 70.5t53 51t74.5 19.5t74 -20.5t51.5 -51t29.5 -66.5t9 -65q0 -49 -26.5 -114.5t-62.5 -132t-75 -126t-63 -100.5 v-577q33 37 68.5 81t68.5 85t58.5 76.5t37.5 58.5q20 -10 47 -28t50 -30q-16 -29 -57.5 -82t-89.5 -113.5t-98 -116.5t-85 -91v-106.5v-60.5v-66.5v-124.5q0 -37 -11.5 -76t-33 -71t-53 -51.5t-74.5 -19.5t-74 20.5t-51.5 51.5t-29.5 67t-9 66zM63 -459q0 -51 21.5 -73.5 t34.5 -22.5q14 0 38.5 24.5t24.5 84.5v260q-14 -23 -34.5 -50.5t-39 -61.5t-32 -75t-13.5 -86zM291 856q16 25 36.5 59.5t39 71.5t31 72.5t12.5 62.5q0 49 -21.5 72t-34.5 23q-14 0 -38.5 -24t-24.5 -85v-252z" />
<glyph unicode="g" horiz-adv-x="892" d="M-6 279q0 41 3 70.5t10 56t21.5 53t39.5 61.5q53 74 123.5 110t138.5 36q143 0 221 -78v74h111v-590q33 37 68.5 81t67 85t57.5 76.5t38 58.5q20 -10 48 -28t48 -30q-16 -29 -57 -82t-89 -113.5t-97.5 -116.5t-83.5 -91v-106.5v-60.5v-66.5v-124.5q0 -37 -11.5 -76 t-34 -71t-54.5 -51.5t-75 -19.5t-73.5 20.5t-51 51.5t-29.5 67t-9 66q0 76 25.5 143.5t60 125t74.5 105.5t67 85v96q-51 -45 -103.5 -73.5t-144.5 -28.5q-66 0 -122 22.5t-98 60.5t-65.5 90t-23.5 112zM102 297q0 -76 46.5 -131t123.5 -66q14 -2 27 -2q39 0 75 14 q50 17 89 51t62.5 82t25.5 103v9q0 36 -13 70q-16 38 -43.5 66.5t-63.5 46t-73 17.5q-51 0 -98 -19.5t-82 -54t-55.5 -83t-20.5 -103.5zM434 -459q0 -51 20.5 -73.5t32.5 -22.5q16 0 40 24.5t24 84.5l2 260q-14 -23 -34.5 -50.5t-39 -61.5t-32 -75t-13.5 -86z" />
<glyph unicode="h" horiz-adv-x="1044" d="M-2 369l182 317l2 422q0 37 11.5 76t33 70.5t53 51t74.5 19.5t74 -20.5t51.5 -51t29.5 -66.5t9 -65q0 -49 -26.5 -115.5t-64.5 -133t-77 -128t-63 -102.5v-119q29 39 62.5 65.5t67.5 44t64.5 25t55.5 7.5q47 0 90 -20.5t76.5 -54.5t53 -80t19.5 -97v-228 q0 -53 17.5 -68.5t42.5 -15.5q29 0 54 24t42 52q29 49 51 88q20 35 38.5 65.5t22.5 41.5l95 -58q-14 -25 -19.5 -34t-14.5 -23t-25.5 -44t-51.5 -91q-8 -14 -23.5 -35.5t-40 -43t-56 -37t-72.5 -15.5q-86 0 -128 56t-42 138v228q0 27 -10.5 52.5t-28 44.5t-39 31.5 t-45.5 12.5q-39 0 -83 -26.5t-81 -68.5t-61.5 -91.5t-24.5 -92.5v-276h-113v465l-86 -154q-18 12 -43.5 26.5t-52.5 31.5zM291 856q16 25 36.5 59.5t39 71.5t31 72.5t12.5 62.5q0 49 -21.5 72t-34.5 23q-14 0 -38.5 -25t-24.5 -84v-252z" />
<glyph unicode="i" horiz-adv-x="509" d="M-2 369q2 4 7 13t11 19q8 12 17 27q4 8 19.5 33.5t32.5 60.5t32.5 72t17.5 68h107v-476q0 -53 17 -68.5t42 -15.5q29 0 54.5 24t41.5 52q27 49 49 88q20 35 39 65.5t23 41.5l96 -58q-14 -25 -20 -34t-14.5 -23t-25 -44t-52.5 -91q-8 -14 -23.5 -35.5t-39 -43t-55.5 -37 t-73 -15.5q-86 0 -128 56t-42 138v37q0 23 1 59v28q0 30 -1 71l-6 -12l-31 -58zM92 979q0 41 29 69.5t69 28.5q41 0 69 -28.5t28 -69.5t-28 -69.5t-69 -28.5t-69.5 28.5t-28.5 69.5z" />
<glyph unicode="j" horiz-adv-x="473" d="M-96 -459q0 76 25.5 143.5t60.5 125t74.5 105.5t66.5 85v381l-6 -12l-31 -58l-96 58q2 4 7 13t11 19q8 12 17 27q4 8 19.5 33.5t32.5 60.5t32.5 72t17.5 68h107v-590q33 37 68.5 81t67.5 85t57.5 76.5t37.5 58.5q20 -10 46.5 -28t49.5 -30q-16 -29 -57 -82t-89 -113.5 t-97.5 -116.5t-83.5 -91v-106.5v-60.5v-66.5v-124.5q0 -37 -11.5 -76t-34 -71t-54 -51.5t-74.5 -19.5t-74 20.5t-51.5 51.5t-29.5 67t-9 66zM14 -459q0 -51 20.5 -73.5t33.5 -22.5q14 0 38.5 24.5t24.5 84.5v260q-14 -23 -33.5 -50.5t-38 -61.5t-32 -75t-13.5 -86zM61 971 q0 41 29 69.5t70 28.5t68.5 -28.5t27.5 -69.5t-27.5 -70t-68.5 -29t-70 29t-29 70z" />
<glyph unicode="k" horiz-adv-x="948" d="M-2 371l184 315v422q0 37 11.5 76t33 70.5t53 51t74.5 19.5t74 -20.5t51.5 -51t29.5 -66.5t9 -65q0 -49 -26.5 -114.5t-62.5 -132t-75 -126t-63 -100.5v-254l405 287l62 -90l-361 -256l305 -219q8 -4 13.5 -8.5t15.5 -8.5q35 -10 54.5 8.5t39.5 51.5l125 213l92 -56 l-127 -225q-55 -100 -159 -100q-35 0 -61.5 8t-47.5 23l-354 249v-272h-113l2 465l-88 -152q-16 12 -42.5 26.5t-53.5 31.5zM291 856q16 25 36.5 59.5t39 71.5t31 72.5t12.5 62.5q0 49 -21.5 72t-34.5 23q-14 0 -38.5 -25t-24.5 -84v-252z" />
<glyph unicode="l" horiz-adv-x="612" d="M-2 369l182 317l2 422q0 37 11.5 76t33 70.5t53 51t74.5 19.5t74 -20.5t51.5 -51t29.5 -66.5t9 -65q0 -49 -26.5 -114.5t-63.5 -132t-76 -126t-63 -100.5v-432q0 -51 25.5 -83t78.5 -32q31 0 58.5 19.5t54.5 66.5l104 183l97 -56l-117 -200q-35 -63 -86 -92t-123 -29 q-84 0 -141.5 57.5t-59.5 141.5v272l-86 -154q-18 12 -43.5 26.5t-52.5 31.5zM291 856q16 25 36.5 59.5t39 71.5t31 72.5t12.5 62.5q0 49 -21.5 72t-34.5 23q-14 0 -38.5 -25t-24.5 -84v-252z" />
<glyph unicode="m" horiz-adv-x="1628" d="M-2 369l94 166q45 76 83 102.5t93 26.5h8q56 0 92 -28q40 -30 68 -95q16 23 45 43t60.5 37.5t62.5 27.5t51 10q164 0 226 -133q117 137 241 138q59 0 104.5 -23t76 -58.5t46 -81.5t15.5 -93v-222q0 -53 16.5 -68.5t40.5 -15.5q29 0 54.5 24t42.5 52q27 49 49 88 q20 35 38.5 65.5t22.5 41.5l96 -58q-14 -25 -20 -34t-14.5 -23t-24.5 -44t-53 -91q-8 -14 -23.5 -35.5t-39 -43t-55.5 -37t-73 -15.5q-86 0 -128 56t-42 138v215v6q-1 59 -35 101q-36 44 -90 45q-43 0 -82.5 -22.5t-71.5 -59.5t-51.5 -83t-19.5 -93v-295h-113v428 q0 55 -31.5 88t-84.5 33q-41 0 -83 -23.5t-76 -60.5t-54.5 -80t-20.5 -84v-301h-110v485q0 31 -16.5 51.5t-45.5 20.5q-16 0 -35.5 -18.5t-37.5 -49.5l-101 -176z" />
<glyph unicode="n" horiz-adv-x="1189" d="M-2 369l94 166q23 41 44.5 65.5t43 39.5t46 20.5t55.5 5.5q27 0 52 -11.5t46.5 -31t36 -45t20.5 -56.5q59 76 130 110t118 34t91 -20.5t78 -54.5t53.5 -80t19.5 -97l-2 -228q0 -53 17 -68.5t42 -15.5q31 0 56.5 24t41.5 52q27 49 49 88q20 35 39 65.5t23 41.5l96 -58 q-14 -25 -20 -34t-15.5 -23t-26 -44t-50.5 -91q-8 -14 -23.5 -35.5t-39 -43t-55.5 -37t-73 -15.5q-86 0 -128 56t-42 138v228q0 27 -10 52.5t-27.5 44.5t-40 31.5t-47.5 12.5q-39 0 -83 -26.5t-81 -68.5t-61.5 -91.5t-24.5 -92.5v-276h-112v502q0 18 -19.5 36.5t-44.5 18.5 q-16 0 -34.5 -18.5t-36.5 -49.5l-101 -176z" />
<glyph unicode="o" horiz-adv-x="854" d="M-6 299q0 72 25.5 138.5t71.5 118.5t108.5 83t136.5 31q14 0 46 -6.5t44 -18.5l-45 -96q-2 4 -8 6q-12 4 -29 4q-51 0 -95 -20.5t-77 -56.5t-51.5 -82t-18.5 -95q0 -57 24 -97t57.5 -63.5t69.5 -34t58 -10.5q20 0 49 8.5t59 27t54.5 50t34.5 78.5q-63 43 -95 101.5 t-32 117.5q0 53 25.5 86t64.5 33q29 0 57.5 -15.5t52 -44t38 -69.5t14.5 -94v-53q14 -4 29.5 -6.5t31.5 -2.5q78 0 115 20.5t47 35.5l94 -58q-29 -47 -96.5 -77.5t-159.5 -30.5q-47 0 -84 12q-29 -102 -110.5 -163.5t-192.5 -61.5q-63 0 -120.5 24.5t-100.5 65.5t-67.5 96.5 t-24.5 118.5zM485 473q0 -39 39 -72q-2 20 -4 31.5t-3 19t-3 12.5t-8 13q-8 13 -13 13q-1 0 -3 -1q-6 -4 -5 -16z" />
<glyph unicode="p" horiz-adv-x="995" d="M-2 369q2 4 7 13t11 19q8 12 17 27q4 8 19.5 33.5t32.5 60.5t32.5 72t17.5 68h109v-140q59 76 127.5 110t115.5 34t91.5 -20.5t78 -54.5t53 -80t19.5 -97l-2 -228q0 -53 17.5 -68.5t41.5 -15.5q31 0 56.5 24t42.5 52q27 49 49 88q20 35 38.5 65.5t22.5 41.5l97 -58 q-14 -25 -20.5 -34t-15.5 -23t-25.5 -44t-51.5 -91q-8 -14 -23.5 -35.5t-40 -43t-56.5 -37t-73 -15.5q-86 0 -127 56t-41 138v228q0 27 -10 52.5t-27.5 44.5t-40 31.5t-46.5 12.5q-39 0 -82 -26.5t-80 -68.5t-62.5 -91.5t-25.5 -92.5v-41v-32.5v-64.5v-138v-253v-406h-111 v1040l-8 -12l-31 -58z" />
<glyph unicode="q" horiz-adv-x="894" d="M-6 279q0 41 3 70.5t10 56t21.5 53t39.5 61.5q53 74 123.5 110t138.5 36q143 0 221 -78v74h113v-592q31 39 66.5 83t68 85t58.5 76.5t38 58.5q20 -10 46.5 -28t49.5 -30q-16 -29 -53 -78t-81 -102t-89 -105.5t-80 -86.5q-18 -20 -21 -60.5t-3 -64.5v-480h-111v764 q-47 -47 -102.5 -77.5t-147.5 -30.5q-66 0 -122 22.5t-98 60.5t-65.5 90t-23.5 112zM102 297q0 -76 46.5 -131t123.5 -66q14 -2 27 -2q39 0 75 14q50 17 89 51t62.5 82t25.5 103v9q0 36 -13 70q-16 38 -43.5 66.5t-63.5 46t-73 17.5q-51 0 -98 -19.5t-82 -54t-55.5 -83 t-20.5 -103.5z" />
<glyph unicode="r" horiz-adv-x="858" d="M-2 369q12 20 27.5 46.5t31.5 53.5q18 31 35 61q23 41 40.5 85t21.5 92h110q0 -10 13.5 -27.5t41.5 -17.5h142q14 0 39.5 -7.5t50 -24t43 -44t18.5 -70.5q0 -78 -13 -152.5t-15 -152.5v-10q0 -32 11 -63q12 -34 55 -34h5q25 2 46.5 18.5t33.5 37.5l123 213l96 -56 l-135 -229q-23 -39 -64.5 -65.5t-88.5 -26.5q-113 0 -154 58.5t-41 156.5q0 49 8 108.5t19 129.5q4 25 6 43t-4 30.5t-24.5 19.5t-59.5 7h-32t-48.5 2t-54 7t-48.5 15q-4 -20 -17 -46.5t-30 -53.5l-10 -19q-10 -18 -24.5 -42.5t-30 -51t-27.5 -47.5z" />
<glyph unicode="s" horiz-adv-x="743" d="M-2 367l178 309l103 -2q0 -6 19 -23.5t46 -41t55.5 -48t46.5 -43.5q35 -31 70 -94.5t35 -151.5q0 -66 -29 -116q102 61 197 182q14 16 17 20t7 15l97 -56q-4 -10 -6.5 -13t-4.5 -5t-5 -6t-9 -14q-39 -63 -94 -115.5t-124 -90.5t-147.5 -59.5t-164.5 -21.5q-47 0 -82 5 t-63.5 19.5t-52.5 37t-50 55.5l80 77q41 -54 77 -72q30 -15 68 -15q8 0 17 1q29 2 57.5 15.5t52 36t36.5 53.5t13 65q-2 61 -19.5 98.5t-51.5 69.5q-25 23 -58 53.5t-73 67.5l-144 -248z" />
<glyph unicode="t" horiz-adv-x="569" d="M-2 369q2 4 7 13t11 19q8 12 17 27q4 8 20.5 33.5t33.5 59.5t32.5 72t19.5 69v147h-92v111h92v403h107v-403h209v-111h-209v-592q0 -51 25.5 -83t78.5 -32q31 0 58.5 19.5t54.5 66.5l106 183l97 -56l-117 -200q-72 -121 -209 -121q-84 0 -142.5 57.5t-58.5 141.5v73 q0 31 -1 66t-1 63l-12 -26l-31 -58z" />
<glyph unicode="u" horiz-adv-x="985" d="M-2 371q2 2 7 11t11 19q8 12 17 27q4 8 19.5 33.5t32.5 59.5t31.5 72t18.5 69h109v-414q0 -53 39 -94t88 -41q39 0 83 27.5t81.5 69.5t62.5 91t25 94v267h112v-480q0 -39 18.5 -58.5t41.5 -19.5q16 0 32.5 12.5t26.5 28.5l131 228l96 -56l-125 -219q-29 -53 -62.5 -77.5 t-86.5 -24.5q-51 0 -85 16.5t-55.5 41t-29.5 50t-8 43.5q-14 -23 -43 -49t-64 -48.5t-73.5 -38t-73.5 -15.5q-47 0 -91 19.5t-78 54t-54.5 81t-20.5 97.5v135l-4 -14l-33 -56z" />
<glyph unicode="v" horiz-adv-x="1124" d="M-2 367l106 186q70 113 162 113q41 0 74 -14.5t55.5 -37t33.5 -49t11 -49.5v-242q0 -35 14.5 -66.5t38 -56t55.5 -40t66 -15.5q29 0 57.5 13.5t51 35t39 51t22.5 62.5q-70 41 -122 108.5t-52 170.5q0 47 23.5 88t71.5 41q68 0 107.5 -43t60 -97.5t25.5 -104.5t5 -67v-28 q14 -4 29.5 -6.5t32.5 -2.5q78 0 114.5 20.5t46.5 35.5l95 -58q-29 -47 -96.5 -77.5t-159.5 -30.5q-23 0 -42.5 2t-35.5 10q-14 -53 -42 -95t-64 -70.5t-76.5 -44t-77.5 -15.5q-135 0 -213 79t-78 208v219q0 18 -18.5 38.5t-41.5 20.5q-39 0 -65 -43l-119 -205zM719 539 q0 -43 17.5 -79t45.5 -65h2q0 20 -6 47t-14 51.5t-18.5 41t-18.5 16.5t-8 -12z" />
<glyph unicode="w" horiz-adv-x="1601" d="M-2 367l106 186q70 113 162 113q41 0 74 -14.5t55.5 -37t33.5 -49t11 -49.5v-242q0 -35 15.5 -66.5t40 -55t56.5 -38t66 -14.5q25 0 57 13.5t59.5 38t46 58.5t18.5 77v372h112v-372q0 -35 18.5 -68t46.5 -59.5t57.5 -42t53.5 -15.5q61 0 111.5 45.5t63.5 112.5 q-70 39 -122.5 107.5t-52.5 169.5q0 47 24 89t71 42q68 0 107.5 -43t60 -98.5t25.5 -105.5t5 -67v-26q31 -10 62 -11q78 0 114.5 20.5t47.5 35.5l94 -58q-29 -47 -96.5 -77.5t-159.5 -30.5q-43 0 -78 12q-14 -53 -42 -95t-63.5 -70.5t-76.5 -44t-78 -15.5q-133 0 -240 131 q-25 -37 -54.5 -61.5t-61 -40t-62.5 -22.5t-57 -7q-137 0 -216 79t-79 208v219q0 18 -17.5 38.5t-40.5 20.5q-39 0 -65 -43l-119 -205zM1196 539q0 -43 17.5 -78t46.5 -64h2q0 18 -6.5 45t-14.5 51.5t-18.5 41t-18.5 16.5t-8 -12z" />
<glyph unicode="x" horiz-adv-x="1124" d="M-2 369q4 8 16 26q8 10 15 23q82 135 157.5 193.5t153.5 58.5q72 0 137.5 -32t100.5 -101q37 68 87 100.5t101 32.5q88 0 146.5 -40t86.5 -134l-104 -27q-8 47 -43 68.5t-70 21.5q-59 0 -104 -60.5t-45 -170.5q0 -123 47 -176.5t125 -53.5q76 0 141.5 46t100.5 104 l75 123l97 -56l-86 -137q-51 -82 -138.5 -134t-175.5 -52t-151.5 32.5t-94.5 96.5q-33 -66 -84 -96.5t-88 -30.5q-51 0 -90 6t-68.5 25.5t-55 54.5t-52.5 90l101 37q25 -68 57.5 -87.5t73.5 -19.5q59 0 102 55.5t47 180.5v13q0 57 -16 95q-18 42 -43 68.5t-50.5 36.5 t-37.5 10q-39 0 -70 -7t-58.5 -28.5t-55 -60.5t-62.5 -101l-29 -51z" />
<glyph unicode="y" d="M-2 371q2 2 7 11t11 19q8 12 17 27q4 8 19.5 33.5t32.5 59.5t31.5 72t18.5 69h109v-414q0 -53 39 -94t88 -41q39 0 83 27.5t81.5 69.5t62.5 91t25 94v267h112v-592q31 39 67 83t68.5 85t58 76.5t38.5 58.5q20 -10 46.5 -28t49.5 -30q-18 -29 -58 -82t-89.5 -113.5 t-98.5 -116.5t-84 -91v-106.5v-60.5v-66.5v-124.5q0 -37 -11 -76t-32.5 -71t-53.5 -51.5t-75 -19.5t-73.5 20.5t-51 51.5t-30 67t-9.5 66q0 76 26 143.5t60.5 125t74.5 105.5t67 85v143q-12 -20 -39 -45.5t-63 -48t-74.5 -38t-73.5 -15.5q-47 0 -91 19.5t-78 54t-54.5 81 t-20.5 97.5v135l-4 -14l-33 -56zM506 -459q0 -51 21.5 -73.5t33.5 -22.5q14 0 39 24.5t25 84.5v260q-14 -23 -35 -50.5t-39.5 -61.5t-31.5 -75t-13 -86z" />
<glyph unicode="z" horiz-adv-x="919" d="M-2 369l182 317q45 -20 87 -31.5t85 -15.5t88 -4t99 2q20 2 62 11t97 26l64 -68l-203 -221h78v-109h-178l-115 -124q49 -4 81 -13.5t54.5 -18.5t43 -16.5t44.5 -7.5q55 0 96.5 17.5t88.5 54.5q35 27 77.5 80t90.5 125q8 -4 23 -13.5t32 -19.5q20 -10 41 -25 q-43 -74 -97.5 -138t-109.5 -105q-113 -82 -238 -82q-51 0 -93 15t-85 25q-27 7 -56 7q-17 0 -34 -2q-47 -6 -108 -49l-78 84l190 206h-76v109h179l131 143q-16 -2 -50 -3h-23q-23 0 -48 1q-37 2 -67.5 5.5t-41.5 5.5q-8 2 -20 6t-25 8q-14 6 -30 10l-142 -250 q-20 12 -39 23q-16 10 -31.5 19t-25.5 16z" />
<glyph unicode="{" horiz-adv-x="471" d="M0 504v106h61q35 0 53.5 17.5t18.5 42.5v596q0 70 49 118t121 48h100v-107h-100q-25 0 -43 -17.5t-18 -41.5v-594q0 -70 -45 -115q45 -49 45 -115v-596q0 -25 18.5 -42t42.5 -17h100v-109h-100q-72 0 -121 49.5t-49 118.5v596q0 35 -21.5 48.5t-50.5 13.5h-61z" />
<glyph unicode="|" d="M160 606v111h659v-111h-659z" />
<glyph unicode="}" horiz-adv-x="471" d="M68 -213h100q27 0 44 17.5t17 41.5v596q0 66 45 115q-45 45 -45 115v594q0 25 -17 42t-44 17h-100v107h100q72 0 121 -48.5t49 -117.5v-596q0 -25 18.5 -42.5t53.5 -17.5h61v-106h-61q-29 0 -50.5 -13.5t-21.5 -48.5v-596q0 -70 -49 -119t-121 -49h-100v109z" />
<glyph unicode="~" d="M147 377q59 25 101.5 36t101.5 11q37 0 71 -8t67.5 -19.5t66.5 -19.5t68 -8q47 0 76.5 7t80.5 27l54 -96q-59 -25 -103.5 -36t-107.5 -11q-37 0 -71 8t-66.5 19.5t-66.5 19.5t-69 8q-45 0 -73.5 -8t-75.5 -28z" />
<glyph unicode="&#xa1;" horiz-adv-x="460" d="M104 575q0 37 26 63t65 26q35 0 60.5 -26t25.5 -63q0 -35 -26 -62.5t-60 -27.5q-39 0 -65 28t-26 62zM137 414h109v-1078h-109v1078z" />
<glyph unicode="&#xa2;" horiz-adv-x="131" d="M-10 145l162 279l94 -55l-162 -279z" />
<glyph unicode="&#xa3;" horiz-adv-x="0" d="M-109 193l121 206l94 -57l-118 -207z" />
<glyph unicode="&#xa4;" horiz-adv-x="1411" d="M18 514l54 107h121q-2 10 -2.5 18t-0.5 18v21.5t3 21.5h-173l50 105h139q25 111 86 205t149 163.5t198 108.5t232 39q150 0 280 -58.5t232 -164.5l-49 -107q-96 111 -211.5 165t-251.5 54q-98 0 -188 -30.5t-162.5 -84t-125 -128t-76.5 -162.5h931l-47 -105h-905v-43v-36 h868l-47 -107h-803q25 -88 77.5 -164t125 -129t162.5 -84t190 -31q135 0 252 56.5t230 185.5q0 -31 -1 -80t-1 -84q-98 -90 -219 -139t-261 -49q-123 0 -232.5 39t-197.5 108.5t-150.5 164.5t-86.5 206h-189z" />
<glyph unicode="&#xa7;" horiz-adv-x="759" d="M-2 371l184 315v422q0 37 11.5 76t33 70.5t53 51t74.5 19.5t74 -20.5t51.5 -51t29.5 -66.5t9 -65q0 -49 -26.5 -114.5t-62.5 -132t-75 -126t-63 -100.5v-254l405 287l62 -90l-361 -256l361 -258l-62 -90l-403 284v-272h-113l2 465l-88 -152q-16 12 -42.5 26.5t-53.5 31.5 zM291 856q16 25 36.5 59.5t39 71.5t31 72.5t12.5 62.5q0 49 -21.5 72t-34.5 23q-14 0 -38.5 -25t-24.5 -84v-252z" />
<glyph unicode="&#xa8;" horiz-adv-x="944" d="M193 918q0 37 26.5 62.5t63.5 25.5q35 0 61.5 -25.5t26.5 -62.5t-27 -64t-61 -27q-37 0 -63.5 27t-26.5 64zM475 918q0 37 26.5 62.5t63.5 25.5q35 0 60.5 -25.5t25.5 -62.5t-25.5 -64t-60.5 -27q-37 0 -63.5 27t-26.5 64z" />
<glyph unicode="&#xa9;" horiz-adv-x="1085" d="M74 670q0 145 41 267t112.5 210t168 138t204.5 50q123 0 226.5 -62.5t174.5 -170.5l-92 -58q-59 86 -141 132.5t-168 46.5q-78 0 -151.5 -38t-132 -108.5t-94.5 -174t-36 -232.5q0 -131 36 -236.5t94.5 -179.5t133 -114t150.5 -40q86 0 168 46.5t141 134.5l92 -60 q-66 -96 -155.5 -156.5t-196.5 -72.5l-10 -41l-2 2q55 -8 97 -49t42 -101q0 -68 -50 -108.5t-114 -40.5q-41 0 -79.5 20.5t-69.5 65.5l74 63q25 -25 39 -36t36 -11q31 0 47.5 15.5t16.5 31.5q0 18 -11.5 28.5t-27.5 14.5t-34.5 6.5t-31.5 2.5q-10 0 -23 -1t-44 -1 q12 33 26.5 76.5t22.5 62.5q-100 12 -188.5 67.5t-153 145.5t-101 208.5t-36.5 256.5z" />
<glyph unicode="&#xaa;" horiz-adv-x="768" d="M141 1094q0 74 47 143q33 47 78 68.5t86 21.5q92 0 142 -49v47h69v-313q0 -18 10.5 -28.5t24.5 -10.5t28.5 9t30.5 34l72 127l62 -35l-78 -131q-18 -35 -48 -54.5t-63 -19.5q-43 0 -65.5 16.5t-36.5 57.5q-37 -35 -71 -54.5t-93 -19.5q-49 0 -85 16.5t-60.5 43t-37 60.5 t-12.5 71zM209 1096q0 -47 29.5 -83t78.5 -42q33 -4 64 7t55.5 32.5t40 52t17.5 65.5q2 27 -8.5 50.5t-28 42t-40 29t-46.5 10.5q-66 0 -114 -47.5t-48 -116.5z" />
<glyph unicode="&#xab;" horiz-adv-x="772" d="M90 336l250 336l92 -66l-205 -268l205 -272l-88 -66zM336 336l246 336l94 -66l-203 -268l203 -272l-86 -66z" />
<glyph unicode="&#xac;" horiz-adv-x="0" d="M-121 205q41 53 74 97t47 71q20 -10 48 -28t48 -30q-16 -27 -53 -77t-82 -105z" />
<glyph unicode="&#xad;" horiz-adv-x="786" d="M147 274v111h478v-111h-478z" />
<glyph unicode="&#xaf;" horiz-adv-x="768" d="M147 784v107h476v-107h-476z" />
<glyph unicode="&#xb0;" horiz-adv-x="540" d="M78 1104q0 47 18.5 89t49 72.5t72.5 48t89 17.5q49 0 91 -17.5t73 -48t49.5 -72.5t18.5 -89t-18.5 -90t-49.5 -75t-73 -50.5t-91 -18.5t-91 18.5t-72.5 50.5t-48 75t-17.5 90zM164 1104q0 -61 42 -104.5t101 -43.5t102.5 43.5t43.5 104.5q0 59 -42 100t-104 41 q-59 0 -101 -41t-42 -100z" />
<glyph unicode="&#xb1;" d="M160 727v111h274v215h113v-217h272v-107h-272v-221h-113v219h-274zM166 272v117h663v-117h-663z" />
<glyph unicode="&#xb4;" horiz-adv-x="927" d="M242 838l352 211l59 -93l-356 -211z" />
<glyph unicode="&#xb6;" horiz-adv-x="1005" d="M121 1073q0 78 28.5 144.5t79 115.5t116 78t138.5 29h467v-1440h-110v707h-240v-707h-108v707q-102 49 -185 108q-35 25 -68.5 54.5t-59 62.5t-42 68.5t-16.5 72.5zM600 817h240v510h-240v-510z" />
<glyph unicode="&#xb7;" horiz-adv-x="442" d="M180 344q0 37 26.5 63.5t63.5 26.5q35 0 60.5 -26.5t25.5 -63.5t-25.5 -63.5t-60.5 -26.5q-37 0 -63.5 26.5t-26.5 63.5z" />
<glyph unicode="&#xb8;" horiz-adv-x="698" d="M-6 307q0 78 24.5 144.5t67.5 114.5t100.5 75t122.5 27q94 0 150.5 -47.5t72.5 -120.5l-106 -21q-14 41 -33.5 60.5t-73.5 19.5q-45 0 -83.5 -19.5t-68.5 -52t-47.5 -75.5t-17.5 -90q0 -94 53.5 -156t151.5 -66q92 -2 171 37t140 115q16 20 25.5 32.5t17 23.5t16.5 25.5 t23 39.5l95 -58q-18 -31 -30.5 -49t-22 -30.5t-17.5 -22.5t-18 -25q-29 -39 -53.5 -62.5t-61.5 -49.5q-47 -33 -104.5 -55.5t-114.5 -24.5l-15 -43q55 -8 97.5 -49t42.5 -101q0 -68 -50.5 -108.5t-113.5 -40.5q-41 0 -80 20.5t-70 65.5l74 63q25 -25 39 -36t37 -11 q31 0 47 15.5t16 31.5q0 18 -11 28.5t-27.5 14.5t-35 6.5t-30.5 2.5q-10 0 -23.5 -1t-44.5 -1q6 18 13.5 39.5t14.5 41t13 37t8 25.5q-61 8 -113 34.5t-89 68.5t-57.5 95.5t-20.5 112.5z" />
<glyph unicode="&#xba;" horiz-adv-x="630" d="M150 1096q2 43 16 84t43 73q68 74 158 74q10 0 28.5 -3t26.5 -11l-29 -62l-22 6q-61 0 -106.5 -47t-45.5 -110q0 -37 15.5 -61.5t36 -40t43 -21.5t36.5 -6q12 0 31.5 6t39 19.5t35 36t21.5 54.5q4 8 2 24.5t-6 31.5q-35 10 -54.5 27.5t-23.5 33.5q-8 33 10.5 58.5 t47.5 25.5t58.5 -25.5t39.5 -74.5q16 -2 22.5 -4t13.5 -3t19 -1h43q-12 -33 -12 -70h-31t-14 1t-14.5 2t-28.5 3q2 -10 2 -18t-2 -25q-6 -39 -25.5 -70.5t-47 -53t-61.5 -33t-67 -11.5q-43 0 -79 15.5t-62.5 42t-41.5 61.5t-15 72z" />
<glyph unicode="&#xbb;" horiz-adv-x="772" d="M113 66l204 272l-204 268l94 66l250 -336l-254 -336zM358 66l203 272l-203 268l95 66l249 -336l-258 -336z" />
<glyph unicode="&#xbf;" horiz-adv-x="884" d="M53 -301q0 59 14.5 109.5t36.5 97.5q35 70 78 128t81 117.5t65.5 125t33.5 151.5h111q-4 -78 -22.5 -139.5t-48 -116.5t-67.5 -107.5t-79 -113.5q-39 -59 -66.5 -119.5t-27.5 -132.5q0 -53 20.5 -100.5t55 -82t82 -55t100.5 -20.5t100 20.5t82 55t55.5 82t20.5 100.5 q0 76 -43 138.5t-121 99.5l53 94q106 -49 162.5 -136t56.5 -196q0 -76 -28.5 -142.5t-78.5 -116.5t-116.5 -79t-142.5 -29t-142.5 29t-116.5 79t-79 116.5t-29 142.5zM322 582q0 35 26.5 60.5t63.5 25.5t62.5 -25.5t25.5 -60.5q0 -37 -25.5 -63.5t-62.5 -26.5t-63.5 26.5 t-26.5 63.5z" />
<glyph unicode="&#xc0;" horiz-adv-x="1163" d="M25 20l483 1303h125l483 -1303l-102 -38l-234 624h-420l-231 -624zM270 1577l60 92l350 -211l-53 -92zM401 717h338l-168 457z" />
<glyph unicode="&#xc1;" horiz-adv-x="1163" d="M25 20l483 1303h125l483 -1303l-102 -38l-234 624h-420l-231 -624zM401 717h338l-168 457zM457 1458l350 211l59 -92l-354 -211z" />
<glyph unicode="&#xc2;" horiz-adv-x="1163" d="M25 20l483 1303h125l483 -1303l-102 -38l-234 624h-420l-231 -624zM270 1430l312 237l309 -237l-66 -82l-243 184l-246 -186zM401 717h338l-168 457z" />
<glyph unicode="&#xc3;" horiz-adv-x="1163" d="M25 20l483 1303h125l483 -1303l-102 -38l-234 624h-420l-231 -624zM342 1520q29 16 56.5 23t60.5 11q61 0 103 -20.5t87 -22.5q31 0 63.5 3.5t65.5 25.5l33 -100q-12 -14 -33.5 -23.5t-46 -12.5t-47 -4t-39.5 -1q-20 0 -41.5 7l-43 14t-47.5 13.5t-56 6.5q-25 0 -44.5 -4 t-41.5 -15zM401 717h338l-168 457z" />
<glyph unicode="&#xc4;" horiz-adv-x="1163" d="M25 20l483 1303h125l483 -1303l-102 -38l-234 624h-420l-231 -624zM346 1542q0 35 25.5 60.5t60.5 25.5q37 0 63.5 -25.5t26.5 -60.5q0 -37 -26.5 -63.5t-63.5 -26.5q-35 0 -60.5 26.5t-25.5 63.5zM401 717h338l-168 457zM629 1542q0 35 25.5 60.5t60.5 25.5 q37 0 63.5 -25.5t26.5 -60.5q0 -37 -26.5 -63.5t-63.5 -26.5q-35 0 -60.5 26.5t-25.5 63.5z" />
<glyph unicode="&#xc5;" horiz-adv-x="1163" d="M25 20l483 1303h125l483 -1303l-102 -38l-234 624h-420l-231 -624zM401 717h338l-168 457zM444 1497q0 53 37 89t88 36q55 0 91 -36t36 -89q0 -55 -37.5 -91t-89.5 -36q-53 0 -89 38t-36 89zM526 1497q0 -18 13.5 -31.5t29.5 -13.5q18 0 31.5 12.5t13.5 32.5 q0 18 -11 30.5t-34 12.5q-16 0 -29.5 -12t-13.5 -31z" />
<glyph unicode="&#xc7;" horiz-adv-x="1085" d="M74 670q0 145 41 267t112.5 210t168 138t204.5 50q123 0 226.5 -62.5t174.5 -170.5l-92 -58q-59 86 -141 132.5t-168 46.5q-78 0 -151.5 -38t-132 -108.5t-94.5 -174t-36 -232.5q0 -131 36 -236.5t94.5 -179.5t133 -114t150.5 -40q86 0 168 46.5t141 134.5l92 -60 q-72 -109 -175 -170t-226 -61q-109 0 -205 52t-167.5 143t-112.5 216t-41 269zM481 -315q33 35 56.5 68.5t29.5 62.5q-27 10 -42 31.5t-15 50.5q0 37 25.5 63.5t62.5 26.5t63.5 -28t26.5 -81q0 -86 -36 -147.5t-89 -120.5z" />
<glyph unicode="&#xc8;" horiz-adv-x="931" d="M111 2v1321h712v-111h-600v-495h539v-111h-539v-493h600v-111h-712zM188 1577l60 92l350 -211l-53 -92z" />
<glyph unicode="&#xc9;" horiz-adv-x="931" d="M111 2v1321h712v-111h-600v-495h539v-111h-539v-493h600v-111h-712zM252 1458l350 211l60 -92l-355 -211z" />
<glyph unicode="&#xca;" horiz-adv-x="931" d="M111 2v1321h712v-111h-600v-495h539v-111h-539v-493h600v-111h-712zM147 1430l312 237l309 -237l-66 -82l-243 184l-246 -186z" />
<glyph unicode="&#xcb;" horiz-adv-x="931" d="M111 2v1321h712v-111h-600v-495h539v-111h-539v-493h600v-111h-712zM258 1542q0 35 25.5 60.5t60.5 25.5q37 0 63.5 -25.5t26.5 -60.5q0 -37 -26.5 -63.5t-63.5 -26.5q-35 0 -60.5 26.5t-25.5 63.5zM541 1542q0 35 25.5 60.5t60.5 25.5q37 0 63.5 -25.5t26.5 -60.5 q0 -37 -26.5 -63.5t-63.5 -26.5q-35 0 -60.5 26.5t-25.5 63.5z" />
<glyph unicode="&#xcc;" horiz-adv-x="792" d="M59 1575l60 92l350 -211l-55 -92zM72 0v111h258v1101h-258v111h624v-111h-256v-1101h254v-111h-622z" />
<glyph unicode="&#xcd;" horiz-adv-x="792" d="M72 0v111h258v1101h-258v111h624v-111h-256v-1101h254v-111h-622zM246 1456l350 211l61 -92l-356 -211z" />
<glyph unicode="&#xce;" horiz-adv-x="792" d="M66 1430l311 237l309 -237l-65 -82l-244 184l-246 -186zM72 0v111h258v1101h-258v111h624v-111h-256v-1101h254v-111h-622z" />
<glyph unicode="&#xcf;" horiz-adv-x="792" d="M72 0v111h258v1101h-258v111h624v-111h-256v-1101h254v-111h-622zM125 1542q0 35 25.5 60.5t62.5 25.5q35 0 62.5 -25.5t27.5 -60.5q0 -37 -27.5 -63.5t-62.5 -26.5q-37 0 -62.5 26.5t-25.5 63.5zM408 1542q0 35 25.5 60.5t62.5 25.5q35 0 61.5 -25.5t26.5 -60.5 q0 -37 -27 -63.5t-61 -26.5q-37 0 -62.5 26.5t-25.5 63.5z" />
<glyph unicode="&#xd1;" horiz-adv-x="1181" d="M123 0v1323h115l714 -1122v1122h113v-1323h-117l-717 1128v-1128h-108zM391 1520q29 16 56.5 23t60.5 11q61 0 103 -20.5t87 -22.5q31 0 64 3.5t65 25.5l33 -100q-12 -14 -33.5 -23.5t-46 -12.5t-47 -4t-39.5 -1q-20 0 -41.5 7l-43 14t-47 13.5t-56.5 6.5q-25 0 -44.5 -4 t-41.5 -15z" />
<glyph unicode="&#xd2;" horiz-adv-x="1228" d="M76 670q0 143 41 264t110.5 209t164.5 137t202 49q109 0 203 -49t164.5 -137t111.5 -209t41 -264q0 -141 -40 -265t-110.5 -214.5t-166 -142.5t-203.5 -52q-106 0 -201.5 51t-165 142.5t-110.5 214t-41 266.5zM186 670q0 -131 36 -235.5t93.5 -177.5t130 -112t148.5 -39 q78 0 150.5 39t131 113t93.5 178.5t35 233.5t-35 231.5t-93.5 173t-131 107.5t-150.5 37q-76 0 -149.5 -37t-131 -107.5t-92.5 -173t-35 -231.5zM270 1577l62 92l350 -211l-55 -92z" />
<glyph unicode="&#xd3;" horiz-adv-x="1228" d="M76 670q0 143 41 264t110.5 209t164.5 137t202 49q109 0 203 -49t164.5 -137t111.5 -209t41 -264q0 -141 -40 -265t-110.5 -214.5t-166 -142.5t-203.5 -52q-106 0 -201.5 51t-165 142.5t-110.5 214t-41 266.5zM186 670q0 -131 36 -235.5t93.5 -177.5t130 -112t148.5 -39 q78 0 150.5 39t131 113t93.5 178.5t35 233.5t-35 231.5t-93.5 173t-131 107.5t-150.5 37q-76 0 -149.5 -37t-131 -107.5t-92.5 -173t-35 -231.5zM479 1456l350 211l60 -92l-354 -211z" />
<glyph unicode="&#xd4;" horiz-adv-x="1228" d="M76 670q0 143 41 264t110.5 209t164.5 137t202 49q109 0 203 -49t164.5 -137t111.5 -209t41 -264q0 -141 -40 -265t-110.5 -214.5t-166 -142.5t-203.5 -52q-106 0 -201.5 51t-165 142.5t-110.5 214t-41 266.5zM186 670q0 -131 36 -235.5t93.5 -177.5t130 -112t148.5 -39 q78 0 150.5 39t131 113t93.5 178.5t35 233.5t-35 231.5t-93.5 173t-131 107.5t-150.5 37q-76 0 -149.5 -37t-131 -107.5t-92.5 -173t-35 -231.5zM279 1430l311 237l309 -237l-65 -82l-244 184l-246 -186z" />
<glyph unicode="&#xd5;" horiz-adv-x="1228" d="M76 670q0 143 41 264t110.5 209t164.5 137t202 49q109 0 203 -49t164.5 -137t111.5 -209t41 -264q0 -141 -40 -265t-110.5 -214.5t-166 -142.5t-203.5 -52q-106 0 -201.5 51t-165 142.5t-110.5 214t-41 266.5zM186 670q0 -131 36 -235.5t93.5 -177.5t130 -112t148.5 -39 q78 0 150.5 39t131 113t93.5 178.5t35 233.5t-35 231.5t-93.5 173t-131 107.5t-150.5 37q-76 0 -149.5 -37t-131 -107.5t-92.5 -173t-35 -231.5zM340 1520q29 16 56.5 23t60.5 11q61 0 103 -20.5t87 -22.5q31 0 63.5 3.5t65.5 25.5l33 -100q-12 -14 -33.5 -23.5t-46 -12.5 t-47.5 -4t-39 -1q-20 0 -41.5 7l-43 14t-47.5 13.5t-56 6.5q-25 0 -44.5 -4t-41.5 -15z" />
<glyph unicode="&#xd6;" horiz-adv-x="1228" d="M76 670q0 143 41 264t110.5 209t164.5 137t202 49q109 0 203 -49t164.5 -137t111.5 -209t41 -264q0 -141 -40 -265t-110.5 -214.5t-166 -142.5t-203.5 -52q-106 0 -201.5 51t-165 142.5t-110.5 214t-41 266.5zM186 670q0 -131 36 -235.5t93.5 -177.5t130 -112t148.5 -39 q78 0 150.5 39t131 113t93.5 178.5t35 233.5t-35 231.5t-93.5 173t-131 107.5t-150.5 37q-76 0 -149.5 -37t-131 -107.5t-92.5 -173t-35 -231.5zM360 1542q0 35 26 60.5t60 25.5q37 0 64 -25.5t27 -60.5q0 -37 -27 -63.5t-64 -26.5q-35 0 -60.5 26.5t-25.5 63.5zM643 1542 q0 35 25.5 60.5t60.5 25.5q37 0 63.5 -25.5t26.5 -60.5q0 -37 -26.5 -63.5t-63.5 -26.5q-35 0 -60.5 26.5t-25.5 63.5z" />
<glyph unicode="&#xd8;" horiz-adv-x="876" d="M-6 299q0 72 25.5 138.5t71.5 118.5t108.5 83t136.5 31q14 0 46 -6.5t44 -18.5l-45 -96q-2 4 -8 6q-12 4 -29 4q-51 0 -95 -20.5t-77 -56.5t-51.5 -82t-18.5 -95q0 -57 24 -96t57.5 -63.5t69.5 -35t58 -10.5q37 0 78 16.5t77 47.5t59.5 76t23.5 100v12q-86 35 -120 80 t-34 86q0 37 24.5 61.5t67.5 24.5q35 0 64 -19.5t45 -39.5q41 -43 55 -119q53 0 108.5 -1t133.5 -3q-8 -27 -11 -53.5t-5 -59.5q-57 0 -111.5 2t-108.5 6q-2 -72 -35.5 -131t-83 -101t-108.5 -65.5t-117 -23.5q-63 0 -121.5 23.5t-102.5 64.5t-69.5 96.5t-25.5 118.5z M139 838l353 211l59 -93l-356 -211z" />
<glyph unicode="&#xd9;" horiz-adv-x="1132" d="M109 440v883h106v-883q0 -70 27.5 -131t76 -107t112 -73t134.5 -27q74 0 137.5 27t110.5 73t73.5 107.5t26.5 130.5v883h111v-883q0 -94 -36 -177t-98.5 -142.5t-146.5 -94t-178 -34.5t-177 34.5t-145.5 94t-98 142.5t-35.5 177zM348 1577l60 92l350 -211l-53 -92z" />
<glyph unicode="&#xda;" horiz-adv-x="1132" d="M109 440v883h106v-883q0 -70 27.5 -131t76 -107t112 -73t134.5 -27q74 0 137.5 27t110.5 73t73.5 107.5t26.5 130.5v883h111v-883q0 -94 -36 -177t-98.5 -142.5t-146.5 -94t-178 -34.5t-177 34.5t-145.5 94t-98 142.5t-35.5 177zM410 1458l350 211l59 -92l-354 -211z" />
<glyph unicode="&#xdb;" horiz-adv-x="1132" d="M109 440v883h106v-883q0 -70 27.5 -131t76 -107t112 -73t134.5 -27q74 0 137.5 27t110.5 73t73.5 107.5t26.5 130.5v883h111v-883q0 -94 -36 -177t-98.5 -142.5t-146.5 -94t-178 -34.5t-177 34.5t-145.5 94t-98 142.5t-35.5 177zM270 1430l312 237l309 -237l-66 -82 l-243 184l-246 -186z" />
<glyph unicode="&#xdc;" horiz-adv-x="1132" d="M109 440v883h106v-883q0 -70 27.5 -131t76 -107t112 -73t134.5 -27q74 0 137.5 27t110.5 73t73.5 107.5t26.5 130.5v883h111v-883q0 -94 -36 -177t-98.5 -142.5t-146.5 -94t-178 -34.5t-177 34.5t-145.5 94t-98 142.5t-35.5 177zM346 1542q0 35 25.5 60.5t60.5 25.5 q37 0 63.5 -25.5t26.5 -60.5q0 -37 -26.5 -63.5t-63.5 -26.5q-35 0 -60.5 26.5t-25.5 63.5zM629 1542q0 35 25.5 60.5t60.5 25.5q37 0 63.5 -25.5t26.5 -60.5q0 -37 -26.5 -63.5t-63.5 -26.5q-35 0 -60.5 26.5t-25.5 63.5z" />
<glyph unicode="&#xdf;" horiz-adv-x="1021" d="M-2 367l172 299v438q0 39 11.5 79t34 72.5t54 53t74.5 20.5t75 -21.5t52.5 -53t29.5 -68.5t9 -68q0 -33 -12.5 -73.5t-30.5 -81.5t-38.5 -79t-37.5 -65l-110 -184v-41v-39v-81v-169q0 -37 17 -72.5t46 -65.5t64.5 -47.5t72.5 -17.5h39t45 13q70 39 95.5 84t21.5 98 q4 12 2 20.5t-4 26.5q-88 23 -149.5 66t-77.5 114q-10 53 6 89t50 53.5t77 11.5t84 -39q45 -29 72.5 -82t43.5 -121q47 -6 107.5 -11t140.5 -3q-8 -27 -11 -53.5t-5 -59.5q-66 -2 -118 2t-105 11q2 -16 3 -29.5t-3 -36.5q-6 -55 -34 -103.5t-68 -84t-90 -57t-101 -21.5 q-66 0 -125.5 21.5t-105.5 62.5t-73.5 98t-27.5 127q2 31 2 57v90l-78 -133zM283 852q14 25 33.5 59.5t38 71.5t30.5 72.5t12 62.5q0 53 -20.5 77t-32.5 24q-14 0 -37.5 -26t-23.5 -89v-252zM555 557q-4 -20 24.5 -46t79.5 -42q-6 18 -14 35.5t-24 34.5q-8 8 -17.5 17 t-19 14t-17.5 3t-12 -16z" />
<glyph unicode="&#xe0;" horiz-adv-x="927" d="M-6 279q0 41 3 70.5t10 56t21.5 53t39.5 61.5q53 74 123.5 110t138.5 36q143 0 221 -78v74h111v-496q0 -31 17 -47.5t40 -16.5q20 0 44.5 15.5t47.5 54.5l117 199l96 -54l-123 -208q-31 -53 -78 -84t-100 -31q-66 0 -102.5 25.5t-59.5 91.5q-29 -27 -55.5 -49.5t-55 -37 t-64.5 -22.5t-83 -8q-66 0 -122 22.5t-98 60.5t-65.5 90t-23.5 112zM102 297q0 -76 46.5 -131t123.5 -66q53 -6 102.5 11.5t88.5 51.5t62.5 82t25.5 103q2 41 -13.5 79t-43 66.5t-63.5 46t-73 17.5q-51 0 -98 -19.5t-82 -54t-55.5 -83t-20.5 -103.5zM158 956l59 93l352 -211 l-55 -93z" />
<glyph unicode="&#xe1;" horiz-adv-x="927" d="M-6 279q0 41 3 70.5t10 56t21.5 53t39.5 61.5q53 74 123.5 110t138.5 36q143 0 221 -78v74h111v-496q0 -31 17 -47.5t40 -16.5q20 0 44.5 15.5t47.5 54.5l117 199l96 -54l-123 -208q-31 -53 -78 -84t-100 -31q-66 0 -102.5 25.5t-59.5 91.5q-29 -27 -55.5 -49.5t-55 -37 t-64.5 -22.5t-83 -8q-66 0 -122 22.5t-98 60.5t-65.5 90t-23.5 112zM102 297q0 -76 46.5 -131t123.5 -66q53 -6 102.5 11.5t88.5 51.5t62.5 82t25.5 103q2 41 -13.5 79t-43 66.5t-63.5 46t-73 17.5q-51 0 -98 -19.5t-82 -54t-55.5 -83t-20.5 -103.5zM228 838l352 211l59 -93 l-356 -211z" />
<glyph unicode="&#xe2;" horiz-adv-x="927" d="M-6 279q0 41 3 70.5t10 56t21.5 53t39.5 61.5q53 74 123.5 110t138.5 36q143 0 221 -78v74h111v-496q0 -31 17 -47.5t40 -16.5q20 0 44.5 15.5t47.5 54.5l117 199l96 -54l-123 -208q-31 -53 -78 -84t-100 -31q-66 0 -102.5 25.5t-59.5 91.5q-29 -27 -55.5 -49.5t-55 -37 t-64.5 -22.5t-83 -8q-66 0 -122 22.5t-98 60.5t-65.5 90t-23.5 112zM8 809l336 256l336 -256l-68 -84l-268 201l-270 -203zM102 297q0 -76 46.5 -131t123.5 -66q53 -6 102.5 11.5t88.5 51.5t62.5 82t25.5 103q2 41 -13.5 79t-43 66.5t-63.5 46t-73 17.5q-51 0 -98 -19.5 t-82 -54t-55.5 -83t-20.5 -103.5z" />
<glyph unicode="&#xe3;" horiz-adv-x="927" d="M-6 279q0 41 3 70.5t10 56t21.5 53t39.5 61.5q53 74 123.5 110t138.5 36q143 0 221 -78v74h111v-496q0 -31 17 -47.5t40 -16.5q20 0 44.5 15.5t47.5 54.5l117 199l96 -56l-123 -206q-31 -53 -78 -84t-100 -31q-66 0 -102.5 25.5t-59.5 91.5q-29 -27 -55.5 -49.5t-55 -37 t-64.5 -22.5t-83 -8q-66 0 -122 22.5t-98 60.5t-65.5 90t-23.5 112zM102 297q0 -76 46.5 -131t123.5 -66q53 -6 102.5 11.5t88.5 51.5t62.5 82t25.5 103q2 41 -13.5 79t-43 66.5t-63.5 46t-73 17.5q-51 0 -98 -19.5t-82 -54t-55.5 -83t-20.5 -103.5zM137 895 q27 16 54.5 23.5t62.5 13.5q31 0 56.5 -7t47 -15.5t43 -15.5t41.5 -7q33 0 67 3t64 25l31 -98q-12 -16 -33.5 -24.5t-45 -12.5t-46 -5t-39.5 -1q-20 0 -41.5 7t-44 14.5t-47 14.5t-55.5 7q-23 -2 -51.5 -10t-34.5 -8z" />
<glyph unicode="&#xe4;" horiz-adv-x="927" d="M-6 279q0 41 3 70.5t10 56t21.5 53t39.5 61.5q53 74 123.5 110t138.5 36q143 0 221 -78v74h111v-496q0 -31 17 -47.5t40 -16.5q20 0 44.5 15.5t47.5 54.5l117 199l96 -56l-123 -206q-31 -53 -78 -84t-100 -31q-66 0 -102.5 25.5t-59.5 91.5q-29 -27 -55.5 -49.5t-55 -37 t-64.5 -22.5t-83 -8q-66 0 -122 22.5t-98 60.5t-65.5 90t-23.5 112zM102 297q0 -76 46.5 -131t123.5 -66q53 -6 102.5 11.5t88.5 51.5t62.5 82t25.5 103q2 41 -13.5 79t-43 66.5t-63.5 46t-73 17.5q-51 0 -98 -19.5t-82 -54t-55.5 -83t-20.5 -103.5zM104 918q0 37 26 62.5 t60 25.5q37 0 64 -25.5t27 -62.5t-27 -64t-64 -27q-35 0 -60.5 27t-25.5 64zM383 918q0 37 26.5 62.5t63.5 25.5q35 0 62.5 -25.5t27.5 -62.5t-27.5 -64t-62.5 -27q-37 0 -63.5 27t-26.5 64z" />
<glyph unicode="&#xe5;" horiz-adv-x="927" d="M-6 279q0 41 3 70.5t10 56t21.5 53t39.5 61.5q53 74 123.5 110t138.5 36q143 0 221 -78v74h111v-496q0 -31 17 -47.5t40 -16.5q20 0 44.5 15.5t47.5 54.5l117 199l96 -56l-123 -206q-31 -53 -78 -84t-100 -31q-66 0 -102.5 25.5t-59.5 91.5q-29 -27 -55.5 -49.5t-55 -37 t-64.5 -22.5t-83 -8q-66 0 -122 22.5t-98 60.5t-65.5 90t-23.5 112zM102 297q0 -76 46.5 -131t123.5 -66q53 -6 102.5 11.5t88.5 51.5t62.5 82t25.5 103q2 41 -13.5 79t-43 66.5t-63.5 46t-73 17.5q-51 0 -98 -19.5t-82 -54t-55.5 -83t-20.5 -103.5zM217 852q0 53 37 89 t88 36q55 0 91 -36t36 -89q0 -55 -38 -91t-89 -36q-53 0 -89 38t-36 89zM299 852q0 -18 13.5 -31.5t29.5 -13.5q18 0 31.5 12.5t13.5 32.5q0 18 -11 30.5t-34 12.5q-16 0 -29.5 -12.5t-13.5 -30.5z" />
<glyph unicode="&#xe6;" horiz-adv-x="1603" d="M-2 367l106 186q70 113 162 113q41 0 74 -14.5t55.5 -37t33.5 -49t11 -49.5v-242q0 -35 15.5 -66.5t40 -55t56.5 -38t66 -14.5q25 0 57 13.5t59.5 38t46 58.5t18.5 77v372h112v-372q0 -37 16.5 -70t43 -58.5t61.5 -41t70 -15.5q14 0 41.5 9.5t54.5 35t48.5 72.5t23.5 121 q-78 23 -132.5 72t-54.5 135q0 43 26 81t73 38q49 0 83.5 -25t57.5 -60.5t35 -77.5t18 -77q49 0 106.5 -2t135.5 -2q-8 -27 -11 -53.5t-5 -59.5q-113 0 -222 6q-6 -92 -36.5 -154.5t-71.5 -99t-87 -52t-81 -15.5q-70 0 -131.5 33.5t-108.5 97.5q-25 -37 -54.5 -61.5t-61 -40 t-62.5 -22.5t-57 -7q-137 0 -216 79t-79 208v219q0 18 -17.5 38.5t-40.5 20.5q-39 0 -65 -43l-119 -205zM1194 549q0 -29 15 -48.5t42 -35.5q-10 31 -22 57.5t-29 30.5q-6 0 -6 -4z" />
<glyph unicode="&#xe7;" horiz-adv-x="698" d="M-6 307q0 78 24.5 144.5t67.5 114.5t100.5 75t122.5 27q94 0 150.5 -47.5t72.5 -120.5l-106 -21q-14 41 -33.5 60.5t-73.5 19.5q-45 0 -83.5 -19.5t-68.5 -52t-47.5 -75.5t-17.5 -90q0 -94 53.5 -156t151.5 -66q92 -2 171 37t140 115q16 20 25.5 32.5t17 23.5t16.5 25.5 t23 39.5l95 -58q-18 -31 -30.5 -49t-22 -30.5t-17.5 -22.5t-18 -25q-29 -39 -53.5 -62.5t-61.5 -49.5q-115 -82 -268 -82q-72 0 -132.5 24.5t-104.5 66.5t-68.5 99.5t-24.5 122.5zM199 -309q35 35 57.5 67.5t28.5 63.5q-27 10 -42.5 31.5t-15.5 50.5q0 35 26 62.5t62 27.5 q37 0 64 -27.5t27 -83.5v2q0 -86 -35 -147.5t-88 -120.5z" />
<glyph unicode="&#xe8;" horiz-adv-x="755" d="M-6 307q0 78 24.5 144.5t67.5 114.5t100.5 76t122.5 28q35 0 70 -6.5t62.5 -22.5t46 -44t18.5 -69q0 -70 -44 -112.5t-106.5 -66t-132 -31t-121.5 -7.5v-12q0 -37 15.5 -73t43 -63.5t67.5 -44t91 -16.5q236 0 422 250q6 8 7.5 8t0.5 0t-1 2.5t6 10.5l96 -56 q-4 -10 -7 -13l-5 -5t0 -2q-88 -147 -216 -224t-298 -81q-72 -2 -132.5 22.5t-104.5 67.5t-68.5 101.5t-24.5 123.5zM66 956l59 93l352 -211l-55 -93zM125 422q31 2 77 6t89 15.5t73.5 32.5t30.5 54q0 16 -17.5 23.5t-35.5 7.5q-66 0 -123 -27.5t-94 -111.5z" />
<glyph unicode="&#xe9;" horiz-adv-x="755" d="M-6 307q0 78 24.5 144.5t67.5 114.5t100.5 76t122.5 28q35 0 70 -6.5t62.5 -22.5t46 -44t18.5 -69q0 -70 -44 -112.5t-106.5 -66t-132 -31t-121.5 -7.5v-12q0 -37 15.5 -73t43 -63.5t67.5 -44t91 -16.5q236 0 422 250q6 8 7.5 8t0.5 0t-1 2.5t6 10.5l96 -56 q-4 -10 -7 -13l-5 -5t0 -2q-88 -147 -216 -224t-298 -81q-72 -2 -132.5 22.5t-104.5 67.5t-68.5 101.5t-24.5 123.5zM78 838l352 211l59 -93l-356 -211zM125 422q31 2 77 6t89 15.5t73.5 32.5t30.5 54q0 16 -17.5 23.5t-35.5 7.5q-66 0 -123 -27.5t-94 -111.5z" />
<glyph unicode="&#xea;" horiz-adv-x="755" d="M-64 809l336 256l336 -256l-68 -84l-268 201l-270 -203zM-6 307q0 78 24.5 144.5t67.5 114.5t100.5 76t122.5 28q35 0 70 -6.5t62.5 -22.5t46 -44t18.5 -69q0 -70 -44 -112.5t-106.5 -66t-132 -31t-121.5 -7.5v-12q0 -37 15.5 -73t43 -63.5t67.5 -44t91 -16.5 q236 0 422 250q6 8 7.5 8t0.5 0t-1 2.5t6 10.5l96 -56q-4 -10 -7 -13l-5 -5t0 -2q-88 -147 -216 -224t-298 -81q-72 -2 -132.5 22.5t-104.5 67.5t-68.5 101.5t-24.5 123.5zM125 422q31 2 77 6t89 15.5t73.5 32.5t30.5 54q0 16 -17.5 23.5t-35.5 7.5q-66 0 -123 -27.5 t-94 -111.5z" />
<glyph unicode="&#xeb;" horiz-adv-x="755" d="M-6 307q0 78 24.5 144.5t67.5 114.5t100.5 76t122.5 28q35 0 70 -6.5t62.5 -22.5t46 -44t18.5 -69q0 -70 -44 -112.5t-106.5 -66t-132 -31t-121.5 -7.5v-12q0 -37 15.5 -73t43 -63.5t67.5 -44t91 -16.5q236 0 422 250q6 8 7.5 8t0.5 0t-1 2.5t6 10.5l96 -56 q-4 -10 -7 -13l-5 -5t0 -2q-88 -147 -216 -224t-298 -81q-72 -2 -132.5 22.5t-104.5 67.5t-68.5 101.5t-24.5 123.5zM12 918q0 37 25.5 62.5t60.5 25.5q37 0 63.5 -25.5t26.5 -62.5t-26.5 -64t-63.5 -27q-35 0 -60.5 27t-25.5 64zM125 422q31 2 77 6t89 15.5t73.5 32.5 t30.5 54q0 16 -17.5 23.5t-35.5 7.5q-66 0 -123 -27.5t-94 -111.5zM291 918q0 37 26.5 62.5t63.5 25.5q35 0 62.5 -25.5t27.5 -62.5t-27.5 -64t-62.5 -27q-37 0 -63.5 27t-26.5 64z" />
<glyph unicode="&#xec;" horiz-adv-x="509" d="M-147 956l59 93l352 -211l-55 -93zM-2 369q2 4 7 13t11 19q8 12 17 27q4 8 19.5 33.5t32.5 60.5t32.5 72t17.5 68h107v-476q0 -53 17 -68.5t42 -15.5q29 0 54.5 24t41.5 52q27 49 49 88q20 35 39 65.5t23 41.5l96 -58q-14 -25 -20 -34t-14.5 -23t-25 -44t-52.5 -91 q-8 -14 -23.5 -35.5t-39 -43t-55.5 -37t-73 -15.5q-86 0 -128 56t-42 138v37q0 23 1 59.5t-1 98.5l-6 -12l-31 -58z" />
<glyph unicode="&#xed;" horiz-adv-x="509" d="M-2 369q2 4 7 13t11 19q8 12 17 27q4 8 19.5 33.5t32.5 60.5t32.5 72t17.5 68h107v-476q0 -53 17 -68.5t42 -15.5q29 0 54.5 24t41.5 52q27 49 49 88q20 35 39 65.5t23 41.5l96 -58q-14 -25 -20 -34t-14.5 -23t-25 -44t-52.5 -91q-8 -14 -23.5 -35.5t-39 -43t-55.5 -37 t-73 -15.5q-86 0 -128 56t-42 138v37q0 23 1 59.5t-1 98.5l-6 -12l-31 -58zM64 838l352 211l59 -93l-356 -211z" />
<glyph unicode="&#xee;" horiz-adv-x="509" d="M-146 809l336 256l336 -256l-68 -84l-268 201l-270 -203zM-2 369q2 4 7 13t11 19q8 12 17 27q4 8 19.5 33.5t32.5 60.5t32.5 72t17.5 68h107v-476q0 -53 17 -68.5t42 -15.5q29 0 54.5 24t41.5 52q27 49 49 88q20 35 39 65.5t23 41.5l96 -58q-14 -25 -20 -34t-14.5 -23 t-25 -44t-52.5 -91q-8 -14 -23.5 -35.5t-39 -43t-55.5 -37t-73 -15.5q-86 0 -128 56t-42 138v37q0 23 1 59.5t-1 98.5l-6 -12l-31 -58z" />
<glyph unicode="&#xef;" horiz-adv-x="509" d="M-66 918q0 37 26 62.5t60 25.5q37 0 64 -25.5t27 -62.5t-27 -64t-64 -27q-35 0 -60.5 27t-25.5 64zM-2 369q2 4 7 13t11 19q8 12 17 27q4 8 19.5 33.5t32.5 60.5t32.5 72t17.5 68h107v-476q0 -53 17 -68.5t42 -15.5q29 0 54.5 24t41.5 52q27 49 49 88q20 35 39 65.5 t23 41.5l96 -58q-14 -25 -20 -34t-14.5 -23t-25 -44t-52.5 -91q-8 -14 -23.5 -35.5t-39 -43t-55.5 -37t-73 -15.5q-86 0 -128 56t-42 138v37q0 23 1 59.5t-1 98.5l-6 -12l-31 -58zM213 918q0 37 26.5 62.5t63.5 25.5q35 0 62.5 -25.5t27.5 -62.5t-27.5 -64t-62.5 -27 q-37 0 -63.5 27t-26.5 64z" />
<glyph unicode="&#xf1;" horiz-adv-x="1189" d="M-2 369l94 166q23 41 44.5 65.5t43 39.5t46 20.5t55.5 5.5q27 0 52 -11.5t46.5 -31t36 -45t20.5 -56.5q59 76 130 110t118 34t91 -20.5t78 -54.5t53.5 -80t19.5 -97l-2 -228q0 -53 17 -68.5t42 -15.5q31 0 56.5 24t41.5 52q27 49 49 88q20 35 39 65.5t23 41.5l96 -58 q-14 -25 -20 -34t-15.5 -23t-26 -44t-50.5 -91q-8 -14 -23.5 -35.5t-39 -43t-55.5 -37t-73 -15.5q-86 0 -128 56t-42 138v228q0 27 -10 52.5t-27.5 44.5t-40 31.5t-47.5 12.5q-39 0 -83 -26.5t-81 -68.5t-61.5 -91.5t-24.5 -92.5v-276h-112v502q0 18 -19.5 36.5t-44.5 18.5 q-16 0 -34.5 -18.5t-36.5 -49.5l-101 -176zM403 895q27 16 54.5 23.5t62.5 13.5q31 0 56.5 -7t47 -15.5t43 -15.5t42.5 -7q33 0 66.5 3t64.5 25l30 -98q-12 -16 -33.5 -24.5t-45 -12.5t-46 -5t-38.5 -1q-20 0 -42 7t-44.5 14.5t-47 14.5t-55.5 7q-23 -2 -49.5 -8t-36.5 -10z " />
<glyph unicode="&#xf2;" horiz-adv-x="854" d="M-6 299q0 72 25.5 138.5t71.5 118.5t108.5 83t136.5 31q14 0 46 -6.5t44 -18.5l-45 -96q-2 4 -8 6q-12 4 -29 4q-51 0 -95 -20.5t-77 -56.5t-51.5 -82t-18.5 -95q0 -57 24 -97t57.5 -63.5t69.5 -34t58 -10.5q20 0 49 8.5t59 27t54.5 50t34.5 78.5q-63 43 -95 101.5 t-32 117.5q0 53 25.5 86t64.5 33q29 0 57.5 -15.5t52 -44t38 -69.5t14.5 -94v-53q14 -4 29.5 -6.5t31.5 -2.5q78 0 115 20.5t47 35.5l94 -58q-29 -47 -96.5 -77.5t-159.5 -30.5q-47 0 -84 12q-29 -102 -110.5 -163.5t-192.5 -61.5q-63 0 -120.5 24.5t-100.5 65.5t-67.5 96.5 t-24.5 118.5zM160 956l59 93l352 -211l-55 -93zM485 473q0 -39 39 -72q-2 20 -4 31.5t-3 19t-3 12.5t-8 13q-10 16 -15.5 12t-5.5 -16z" />
<glyph unicode="&#xf3;" horiz-adv-x="854" d="M-6 299q0 72 25.5 138.5t71.5 118.5t108.5 83t136.5 31q14 0 46 -6.5t44 -18.5l-45 -96q-2 4 -8 6q-12 4 -29 4q-51 0 -95 -20.5t-77 -56.5t-51.5 -82t-18.5 -95q0 -57 24 -97t57.5 -63.5t69.5 -34t58 -10.5q20 0 49 8.5t59 27t54.5 50t34.5 78.5q-63 43 -95 101.5 t-32 117.5q0 53 25.5 86t64.5 33q29 0 57.5 -15.5t52 -44t38 -69.5t14.5 -94v-53q14 -4 29.5 -6.5t31.5 -2.5q78 0 115 20.5t47 35.5l94 -58q-29 -47 -96.5 -77.5t-159.5 -30.5q-47 0 -84 12q-29 -102 -110.5 -163.5t-192.5 -61.5q-63 0 -120.5 24.5t-100.5 65.5t-67.5 96.5 t-24.5 118.5zM148 838l352 211l59 -93l-356 -211zM485 473q0 -39 39 -72q-2 20 -4 31.5t-3 19t-3 12.5t-8 13q-10 16 -15.5 12t-5.5 -16z" />
<glyph unicode="&#xf4;" horiz-adv-x="854" d="M-6 299q0 72 25.5 138.5t71.5 117.5t108.5 82t136.5 31q14 0 46 -5.5t44 -17.5l-45 -96q-2 2 -8 4q-12 4 -29 4q-51 0 -95 -20.5t-77 -56.5t-51.5 -82t-18.5 -95q0 -57 24 -96t57.5 -63.5t69.5 -34t58 -9.5q20 0 49 8.5t59 27t54.5 50t34.5 78.5q-63 43 -95 101.5 t-32 117.5q0 53 25.5 86t64.5 33q29 0 57.5 -15.5t52 -44t38 -70.5t14.5 -95v-51q25 -8 61 -9q78 0 115 19.5t47 34.5l94 -58q-29 -47 -96.5 -76.5t-159.5 -29.5q-23 0 -44 2t-40 8q-29 -102 -110.5 -163.5t-192.5 -61.5q-63 0 -120.5 24.5t-100.5 65.5t-67.5 97.5 t-24.5 119.5zM-4 809l336 256l336 -256l-68 -84l-268 201l-271 -203zM485 473q0 -41 39 -74q-2 20 -4 31.5t-3 19t-3 12.5t-8 13q-10 16 -15.5 13t-5.5 -15z" />
<glyph unicode="&#xf5;" horiz-adv-x="854" d="M-6 299q0 72 25.5 138.5t71.5 118.5t108.5 83t136.5 31q14 0 46 -6.5t44 -18.5l-45 -96q-2 4 -8 6q-12 4 -29 4q-51 0 -95 -20.5t-77 -56.5t-51.5 -82t-18.5 -95q0 -57 24 -97t57.5 -63.5t69.5 -34t58 -10.5q20 0 49 8.5t59 27t54.5 50t34.5 78.5q-63 43 -95 101.5 t-32 117.5q0 53 25.5 86t64.5 33q29 0 57.5 -15.5t52 -44t38 -69.5t14.5 -94v-53q14 -4 29.5 -6.5t31.5 -2.5q78 0 115 20.5t47 35.5l94 -58q-29 -47 -96.5 -77.5t-159.5 -30.5q-47 0 -84 12q-29 -102 -110.5 -163.5t-192.5 -61.5q-63 0 -120.5 24.5t-100.5 65.5t-67.5 96.5 t-24.5 118.5zM96 883q53 29 117 37q31 0 56.5 -7.5t47 -14.5l43 -14t41.5 -7q33 -2 67 2t64 22l31 -96q-12 -16 -33.5 -24.5t-45 -12.5t-46 -5t-39.5 -1q-20 0 -41.5 7t-44 15.5t-47 14.5t-55.5 6q-47 0 -86 -21zM485 473q0 -39 39 -72q-2 20 -4 31.5t-3 19t-3 12.5t-8 13 q-10 16 -15.5 12t-5.5 -16z" />
<glyph unicode="&#xf6;" horiz-adv-x="854" d="M-6 299q0 72 25.5 138.5t71.5 118.5t108.5 83t136.5 31q14 0 46 -6.5t44 -18.5l-45 -96q-2 4 -8 6q-12 4 -29 4q-51 0 -95 -20.5t-77 -56.5t-51.5 -82t-18.5 -95q0 -57 24 -97t57.5 -63.5t69.5 -34t58 -10.5q20 0 49 8.5t59 27t54.5 50t34.5 78.5q-63 43 -95 101.5 t-32 117.5q0 53 25.5 86t64.5 33q29 0 57.5 -15.5t52 -44t38 -69.5t14.5 -94v-53q14 -4 29.5 -6.5t31.5 -2.5q78 0 115 20.5t47 35.5l94 -58q-29 -47 -96.5 -77.5t-159.5 -30.5q-47 0 -84 12q-29 -102 -110.5 -163.5t-192.5 -61.5q-63 0 -120.5 24.5t-100.5 65.5t-67.5 96.5 t-24.5 118.5zM98 918q0 37 26 62.5t60 25.5q37 0 63.5 -25.5t26.5 -62.5t-26.5 -64t-63.5 -27q-35 0 -60.5 27t-25.5 64zM377 918q0 37 26.5 62.5t63.5 25.5q35 0 62.5 -25.5t27.5 -62.5t-27.5 -64t-62.5 -27q-37 0 -63.5 27t-26.5 64zM485 473q0 -39 39 -72q-2 20 -4 31.5 t-3 19t-3 12.5t-8 13q-10 16 -15.5 12t-5.5 -16z" />
<glyph unicode="&#xf7;" d="M395 424q0 35 27 61.5t61 26.5q37 0 62.5 -26.5t25.5 -61.5q0 -37 -25.5 -62.5t-62.5 -25.5q-35 0 -61.5 25.5t-26.5 62.5zM395 901q0 35 27 61.5t61 26.5q37 0 62.5 -26.5t25.5 -61.5q0 -37 -25.5 -63.5t-62.5 -26.5q-35 0 -61.5 26.5t-26.5 63.5z" />
<glyph unicode="&#xf8;" horiz-adv-x="876" d="M-6 299q0 72 25.5 138.5t71.5 118.5t108.5 83t136.5 31q14 0 46 -6.5t44 -18.5l-45 -96q-2 4 -8 6q-12 4 -29 4q-51 0 -95 -20.5t-77 -56.5t-51.5 -82t-18.5 -95q0 -57 24 -96t57.5 -63.5t69.5 -35t58 -10.5q37 0 78 16.5t77 47.5t59.5 76t23.5 100v12q-86 35 -120 80 t-34 86q0 37 24.5 61.5t67.5 24.5q35 0 64 -19.5t45 -39.5q41 -43 55 -119q53 0 108.5 -1t133.5 -3q-8 -27 -11 -53.5t-5 -59.5q-57 0 -111.5 2t-108.5 6q-2 -72 -35.5 -131t-83 -101t-108.5 -65.5t-117 -23.5q-63 0 -121.5 23.5t-102.5 64.5t-69.5 96.5t-25.5 118.5z" />
<glyph unicode="&#xf9;" horiz-adv-x="985" d="M-2 371q2 2 7 11t11 19q8 12 17 27q4 8 19.5 33.5t32.5 59.5t31.5 72t18.5 69h109v-414q0 -53 39 -94t88 -41q39 0 83 27.5t81.5 69.5t62.5 91t25 94v267h112v-480q0 -39 18.5 -58.5t41.5 -19.5q16 0 32.5 12.5t26.5 28.5l131 228l96 -56l-125 -219q-29 -53 -62.5 -77.5 t-86.5 -24.5q-51 0 -85 16.5t-55.5 41t-29.5 50t-8 43.5q-14 -23 -43 -49t-64 -48.5t-73.5 -38t-73.5 -15.5q-47 0 -91 19.5t-78 54t-54.5 81t-20.5 97.5v135l-4 -14l-33 -56zM240 956l59 93l352 -211l-55 -93z" />
<glyph unicode="&#xfa;" horiz-adv-x="985" d="M-2 371q2 2 7 11t11 19q8 12 17 27q4 8 19.5 33.5t32.5 59.5t31.5 72t18.5 69h109v-414q0 -53 39 -94t88 -41q39 0 83 27.5t81.5 69.5t62.5 91t25 94v267h112v-480q0 -39 18.5 -58.5t41.5 -19.5q16 0 32.5 12.5t26.5 28.5l131 228l96 -56l-125 -219q-29 -53 -62.5 -77.5 t-86.5 -24.5q-51 0 -85 16.5t-55.5 41t-29.5 50t-8 43.5q-14 -23 -43 -49t-64 -48.5t-73.5 -38t-73.5 -15.5q-47 0 -91 19.5t-78 54t-54.5 81t-20.5 97.5v135l-4 -14l-33 -56zM267 838l352 211l59 -93l-356 -211z" />
<glyph unicode="&#xfb;" horiz-adv-x="985" d="M-2 371q2 2 7 11t11 19q8 12 17 27q4 8 19.5 33.5t32.5 59.5t31.5 72t18.5 69h109v-414q0 -53 39 -94t88 -41q39 0 83 27.5t81.5 69.5t62.5 91t25 94v267h112v-480q0 -39 18.5 -58.5t41.5 -19.5q16 0 32.5 12.5t26.5 28.5l131 228l96 -56l-125 -219q-29 -53 -62.5 -77.5 t-86.5 -24.5q-51 0 -85 16.5t-55.5 41t-29.5 50t-8 43.5q-14 -23 -43 -49t-64 -48.5t-73.5 -38t-73.5 -15.5q-47 0 -91 19.5t-78 54t-54.5 81t-20.5 97.5v135l-4 -14l-33 -56zM96 809l336 256l336 -256l-68 -84l-268 201l-270 -203z" />
<glyph unicode="&#xfc;" horiz-adv-x="985" d="M-2 371q2 2 7 11t11 19q8 12 17 27q4 8 19.5 33.5t32.5 59.5t31.5 72t18.5 69h109v-414q0 -53 39 -94t88 -41q39 0 83 27.5t81.5 69.5t62.5 91t25 94v267h112v-480q0 -39 18.5 -58.5t41.5 -19.5q16 0 32.5 12.5t26.5 28.5l131 228l96 -56l-125 -219q-29 -53 -62.5 -77.5 t-86.5 -24.5q-51 0 -85 16.5t-55.5 41t-29.5 50t-8 43.5q-14 -23 -43 -49t-64 -48.5t-73.5 -38t-73.5 -15.5q-47 0 -91 19.5t-78 54t-54.5 81t-20.5 97.5v135l-4 -14l-33 -56zM213 918q0 37 26.5 62.5t63.5 25.5q35 0 61.5 -25.5t26.5 -62.5t-26.5 -64t-61.5 -27 q-37 0 -63.5 27t-26.5 64zM496 918q0 37 26.5 62.5t63.5 25.5q35 0 60.5 -25.5t25.5 -62.5t-25.5 -64t-60.5 -27q-37 0 -63.5 27t-26.5 64z" />
<glyph unicode="&#xff;" d="M-2 371q2 2 7 11t11 19q8 12 17 27q4 8 19.5 33.5t32.5 59.5t31.5 72t18.5 69h109v-414q0 -53 39 -94t88 -41q39 0 83 27.5t81.5 69.5t62.5 91t25 94v267h112v-592q31 39 67 83t68.5 85t58 76.5t38.5 58.5q20 -10 46.5 -28t49.5 -30q-18 -29 -58 -82t-89.5 -113.5 t-98.5 -116.5t-84 -91v-106.5v-60.5v-66.5v-124.5q0 -37 -11 -76t-32.5 -71t-53.5 -51.5t-75 -19.5t-73.5 20.5t-51 51.5t-30 67t-9.5 66q0 76 26 143.5t60.5 125t74.5 105.5t67 85v143q-12 -20 -39 -45.5t-63 -48t-74.5 -38t-73.5 -15.5q-47 0 -91 19.5t-78 54t-54.5 81 t-20.5 97.5v135l-4 -14l-33 -56zM213 918q0 37 26.5 62.5t63.5 25.5q35 0 61.5 -25.5t26.5 -62.5t-26.5 -64t-61.5 -27q-37 0 -63.5 27t-26.5 64zM496 918q0 37 26.5 62.5t63.5 25.5q35 0 60.5 -25.5t25.5 -62.5t-25.5 -64t-60.5 -27q-37 0 -63.5 27t-26.5 64zM506 -459 q0 -51 21.5 -73.5t33.5 -22.5q14 0 39 24.5t25 84.5v260q-14 -23 -35 -50.5t-39.5 -61.5t-31.5 -75t-13 -86z" />
<glyph unicode="&#x153;" horiz-adv-x="876" d="M-6 299q0 72 25.5 138.5t71.5 118.5t108.5 83t136.5 31q14 0 46 -6.5t44 -18.5l-45 -96q-2 4 -8 6q-12 4 -29 4q-51 0 -95 -20.5t-77 -56.5t-51.5 -82t-18.5 -95q0 -57 24 -96t57.5 -63.5t69.5 -35t58 -10.5q37 0 78 16.5t77 47.5t59.5 76t23.5 100v12q-86 35 -120 80 t-34 86q0 37 24.5 61.5t67.5 24.5q35 0 64 -19.5t45 -39.5q41 -43 55 -119q53 0 108.5 -1t133.5 -3q-8 -27 -11 -53.5t-5 -59.5q-57 0 -111.5 2t-108.5 6q-2 -72 -35.5 -131t-83 -101t-108.5 -65.5t-117 -23.5q-63 0 -121.5 23.5t-102.5 64.5t-69.5 96.5t-25.5 118.5z M158 956l59 93l352 -211l-55 -93z" />
<glyph unicode="&#x178;" horiz-adv-x="1060" d="M53 1284l94 59l369 -628l369 626l94 -57l-410 -682v-602h-110v600zM285 1542q0 35 25.5 60.5t60.5 25.5q37 0 63.5 -25.5t26.5 -60.5q0 -37 -26.5 -63.5t-63.5 -26.5q-35 0 -60.5 26.5t-25.5 63.5zM567 1542q0 35 25.5 60.5t60.5 25.5q37 0 63.5 -25.5t26.5 -60.5 q0 -37 -26.5 -63.5t-63.5 -26.5q-35 0 -60.5 26.5t-25.5 63.5z" />
<glyph unicode="&#x2c6;" horiz-adv-x="856" d="M98 809l336 256l336 -256l-68 -84l-268 201l-270 -203z" />
<glyph unicode="&#x2dc;" horiz-adv-x="1153" d="M342 883q53 29 117 37q31 0 56.5 -7.5t47 -14.5l43 -14t41.5 -7q33 -2 67 2t64 22l31 -96q-12 -16 -33.5 -24.5t-45 -12.5t-46 -5t-39.5 -1q-20 0 -41.5 7t-44 15.5t-47.5 14.5t-55 6q-47 0 -86 -21z" />
<glyph unicode="&#x2000;" horiz-adv-x="834" />
<glyph unicode="&#x2001;" horiz-adv-x="1669" />
<glyph unicode="&#x2002;" horiz-adv-x="834" />
<glyph unicode="&#x2003;" horiz-adv-x="1669" />
<glyph unicode="&#x2004;" horiz-adv-x="556" />
<glyph unicode="&#x2005;" horiz-adv-x="417" />
<glyph unicode="&#x2006;" horiz-adv-x="278" />
<glyph unicode="&#x2007;" horiz-adv-x="278" />
<glyph unicode="&#x2008;" horiz-adv-x="208" />
<glyph unicode="&#x2009;" horiz-adv-x="333" />
<glyph unicode="&#x200a;" horiz-adv-x="92" />
<glyph unicode="&#x2010;" horiz-adv-x="786" d="M147 274v111h478v-111h-478z" />
<glyph unicode="&#x2011;" horiz-adv-x="786" d="M147 274v111h478v-111h-478z" />
<glyph unicode="&#x2012;" horiz-adv-x="786" d="M147 274v111h478v-111h-478z" />
<glyph unicode="&#x2013;" horiz-adv-x="1296" d="M172 274v113h950v-113h-950z" />
<glyph unicode="&#x2014;" horiz-adv-x="1724" d="M133 279v108h1442v-108h-1442z" />
<glyph unicode="&#x2018;" horiz-adv-x="438" d="M133 1171q0 41 26.5 66t63.5 25q35 0 61.5 -27t26.5 -64q0 -29 -15 -50t-42 -31q6 -29 28.5 -62t57.5 -67l-84 -74q-29 31 -52.5 60.5t-38.5 62t-23.5 71.5t-8.5 90z" />
<glyph unicode="&#x2019;" horiz-adv-x="438" d="M80 961q33 35 56.5 67.5t29.5 61.5q-27 10 -42 31.5t-15 49.5q0 37 25.5 64t62.5 27t62.5 -25t25.5 -66q0 -51 -8.5 -90t-23.5 -71.5t-37.5 -62t-51.5 -60.5z" />
<glyph unicode="&#x201c;" horiz-adv-x="589" d="M47 1233q4 41 29.5 65.5t60.5 24.5q37 0 63.5 -25.5t26.5 -64.5q0 -29 -15 -50.5t-44 -31.5q4 -29 28.5 -62.5t55.5 -66.5l-80 -74q-59 59 -96 131t-29 154zM305 1233q4 41 29.5 65.5t62.5 24.5q35 0 60.5 -25.5t25.5 -64.5q0 -29 -15 -50.5t-42 -31.5q6 -29 29.5 -62.5 t56.5 -66.5l-80 -74q-59 59 -96 131t-31 154z" />
<glyph unicode="&#x201d;" horiz-adv-x="589" d="M84 1024q31 35 55.5 67.5t28.5 61.5q-59 23 -59 82q0 39 26.5 64.5t63.5 25.5q35 0 61.5 -24.5t30.5 -65.5q6 -82 -31 -152.5t-96 -132.5zM344 1024q31 35 53.5 67.5t28.5 61.5q-27 10 -42 31.5t-15 50.5q0 39 26.5 64.5t63.5 25.5q35 0 59.5 -24.5t28.5 -65.5 q8 -80 -28 -151.5t-95 -133.5z" />
<glyph unicode="&#x2022;" horiz-adv-x="999" d="M205 340q0 59 22.5 111.5t60.5 90.5t90 60.5t111 22.5t111.5 -22.5t91.5 -60.5t61.5 -90.5t22.5 -111.5t-22.5 -111.5t-61.5 -91.5t-91 -61.5t-112 -22.5q-59 0 -111 22.5t-90 61.5t-60.5 91.5t-22.5 111.5z" />
<glyph unicode="&#x2026;" horiz-adv-x="878" d="M123 80q0 37 27.5 63.5t62.5 26.5q37 0 63.5 -26.5t26.5 -63.5q0 -35 -26.5 -60.5t-63.5 -25.5q-35 0 -62.5 25.5t-27.5 60.5zM410 80q0 37 27.5 63.5t62.5 26.5q37 0 63.5 -26.5t26.5 -63.5q0 -35 -26.5 -60.5t-63.5 -25.5q-35 0 -62.5 25.5t-27.5 60.5zM696 80 q0 37 28 63.5t62 26.5q37 0 64 -26.5t27 -63.5q0 -35 -27 -60.5t-64 -25.5q-35 0 -62.5 25.5t-27.5 60.5z" />
<glyph unicode="&#x202f;" horiz-adv-x="333" />
<glyph unicode="&#x2039;" horiz-adv-x="552" d="M94 332l236 307l86 -68l-183 -239l183 -240l-86 -69z" />
<glyph unicode="&#x203a;" horiz-adv-x="552" d="M135 92l187 240l-187 239l90 68l236 -307l-236 -309h-2z" />
<glyph unicode="&#x205f;" horiz-adv-x="417" />
<glyph unicode="&#xe000;" horiz-adv-x="665" d="M0 0v666h666v-666h-666z" />
</font>
</defs>
</svg>
